<svg width="243" height="37" viewBox="0 0 243 37" fill="none" xmlns="http://www.w3.org/2000/svg">
<path d="M20.287 29.1015C18.8842 29.0803 18.1973 28.3514 18.4886 27.0244C19.2079 23.7972 19.992 20.5807 20.7725 17.3641C21.6753 13.6486 22.6069 9.93309 23.5276 6.22467C23.5939 5.96697 23.6744 5.713 23.7686 5.46388C24.1858 4.33153 25.0383 3.9246 26.254 4.27138C27.2682 4.558 27.725 5.33295 27.4553 6.45822C26.4338 10.7328 25.3955 15.0039 24.3405 19.2714C23.6823 21.9996 23.0061 24.7349 22.3047 27.4632C21.9774 28.7123 21.4343 29.1157 20.287 29.1015Z" fill="#889BB0"/>
<path d="M60.7215 26.0617C59.9554 25.7397 59.2504 25.4496 58.5635 25.1488C54.0076 23.2049 49.4517 21.2646 44.8959 19.3278C44.7312 19.2876 44.5872 19.1894 44.4911 19.0518C44.3951 18.9143 44.3535 18.7468 44.3743 18.5812C44.4067 17.6116 44.3995 16.635 44.3743 15.6654C44.3573 15.5357 44.3882 15.4042 44.4615 15.2951C44.5348 15.1859 44.6456 15.1064 44.7736 15.0709C49.9361 12.8652 55.107 10.656 60.2863 8.44318C60.405 8.39364 60.5345 8.36179 60.7179 8.30518C60.7179 9.7383 60.7179 11.136 60.6963 12.509C60.6963 12.6612 60.4122 12.8629 60.2144 12.9478C56.8574 14.2405 53.4897 15.5227 50.1111 16.7942C49.8773 16.8827 49.6508 16.9782 49.3055 17.1162C49.5896 17.2471 49.7838 17.3462 49.9852 17.4241C53.395 18.7546 56.8191 20.0922 60.2216 21.405C60.387 21.4431 60.5317 21.5411 60.627 21.6794C60.7223 21.8178 60.7612 21.9863 60.7359 22.1516C60.7035 23.422 60.7215 24.6994 60.7215 26.0617Z" fill="#889BB0"/>
<path d="M35.9724 18.5388C35.7566 18.3761 35.6127 18.2558 35.458 18.1496C33.7316 17.0066 32.8576 15.3541 32.6202 13.3725C32.4691 12.1093 32.4404 10.8283 32.3756 9.55441C32.3217 8.54592 32.3181 7.53389 32.2497 6.52539C32.167 5.2692 31.6635 4.75611 30.4514 4.58979C28.7537 4.3704 27.9516 3.17437 28.3761 1.53601C28.4602 1.17122 28.6554 0.840344 28.9356 0.587466C29.2157 0.334587 29.5676 0.171722 29.9442 0.120578C33.541 -0.537596 37.0262 1.53601 37.2061 5.42844C37.3068 7.55158 37.3679 9.69595 37.4255 11.8333C37.4092 12.6284 37.6029 13.4141 37.9874 14.1137C38.3719 14.8133 38.9342 15.4028 39.6195 15.8248C39.8964 16.0017 40.1626 16.1786 40.4467 16.3555C42.1983 17.3322 41.925 20.0569 40.3316 20.7646C40.1134 20.8878 39.9021 21.0224 39.6986 21.168C38.1088 22.0951 37.4722 23.5247 37.4255 25.2834C37.3643 27.4065 37.2996 29.5509 37.2097 31.6846C37.1709 33.0913 36.5812 34.4288 35.5638 35.4179C34.5464 36.407 33.1799 36.9711 31.7498 36.9925C31.0386 37.0254 30.3264 36.9502 29.6385 36.7696C28.6314 36.4794 28.1603 35.5311 28.3041 34.3881C28.448 33.2452 29.063 32.6188 30.1025 32.4525C31.7606 32.2048 32.149 31.8333 32.2605 30.1737C32.372 28.4433 32.4224 26.7094 32.4727 24.9755C32.5483 22.3676 33.3899 20.1595 35.7314 18.6981L35.9724 18.5388Z" fill="#889BB0"/>
<path d="M16.3774 25.9948C15.6113 25.6728 14.9063 25.3827 14.2193 25.0819C9.66344 23.138 5.10757 21.1977 0.5517 19.2609C0.381697 19.2259 0.231236 19.1294 0.130023 18.9905C0.0288091 18.8516 -0.0158022 18.6804 0.00499577 18.5108C0.0373664 17.5412 0.030173 16.5645 0.00499577 15.595C-0.0120663 15.4652 0.0188786 15.3338 0.0921782 15.2246C0.165478 15.1155 0.27624 15.0359 0.404234 15.0005C5.58594 12.7971 10.7652 10.5891 15.9422 8.37629C16.0608 8.32675 16.1903 8.2949 16.3738 8.23828C16.3738 9.6714 16.3738 11.0691 16.3522 12.4421C16.3522 12.5943 16.068 12.796 15.8702 12.8809C12.5061 14.1713 9.13592 15.4534 5.75978 16.7273C5.52599 16.8158 5.2994 16.9113 4.95411 17.0493C5.23825 17.1803 5.43248 17.2793 5.63389 17.3572C9.0436 18.6877 12.4677 20.0253 15.8702 21.3381C16.0356 21.3762 16.1803 21.4742 16.2756 21.6125C16.3709 21.7509 16.4098 21.9194 16.3846 22.0847C16.363 23.3444 16.3774 24.6325 16.3774 25.9948Z" fill="#889BB0"/>
<path d="M91.5564 20.5664C91.1875 20.4625 90.7935 20.487 90.4409 20.636C90.0883 20.7849 89.7988 21.0491 89.6214 21.3838C89.3912 21.7978 89.2257 22.2472 89.0351 22.6825C88.1215 24.8056 86.5174 25.9273 84.1579 25.9627C81.9172 25.9946 80.2375 25.0922 79.216 23.0929C78.7515 22.1428 78.4791 21.1128 78.4139 20.0604C78.2485 18.0646 78.3204 16.083 79.1765 14.2253C79.9893 12.456 81.3345 11.2989 83.3451 11.0406C85.5031 10.761 87.2547 11.4369 88.4884 13.2416C88.9092 13.8608 89.2653 14.5225 89.6933 15.1347C89.9063 15.3937 90.1893 15.5882 90.5097 15.696C90.8301 15.8037 91.1749 15.8203 91.5045 15.7438C91.834 15.6672 92.1349 15.5007 92.3726 15.2634C92.6102 15.0261 92.7749 14.7276 92.8477 14.4022C92.9204 13.954 92.8959 13.4958 92.7757 13.0576C92.283 11.2883 91.0924 10.0533 89.5387 9.10851C87.3806 7.77447 84.996 7.42061 82.4998 7.77447C79.3959 8.22741 76.9537 9.74546 75.4754 12.4914C73.526 16.1149 73.5188 19.887 75.0438 23.645C75.4422 24.7176 76.058 25.6995 76.8537 26.531C77.6494 27.3625 78.6085 28.0263 79.6728 28.4822C81.0279 29.0326 82.4835 29.3036 83.9493 29.2784C87.0533 29.3173 89.4344 28.4079 91.1428 26.5289C92.2578 25.2939 93.0203 23.8891 92.97 22.1729C92.9429 21.7907 92.7905 21.4274 92.5356 21.1377C92.2807 20.848 91.9371 20.6475 91.5564 20.5664V20.5664Z" fill="#889BB0"/>
<path d="M167.825 20.577C167.445 20.4852 167.045 20.5274 166.693 20.6961C166.342 20.8648 166.061 21.1495 165.901 21.5005C165.779 21.7234 165.703 21.9676 165.581 22.2082C165.263 22.8984 164.892 23.5632 164.47 24.1969C163.491 25.4814 162.074 25.991 160.492 26.0157C158.675 26.044 157.107 25.4637 156.014 23.9457C155.26 22.8455 154.817 21.5682 154.73 20.2443C154.532 18.2273 154.597 16.2351 155.409 14.3491C156.262 12.371 157.783 11.1644 160.002 10.9839C162.222 10.8034 163.847 11.6668 164.988 13.5104C165.318 14.0447 165.631 14.5932 165.998 15.1028C166.227 15.4271 166.565 15.6607 166.952 15.7619C167.34 15.8631 167.751 15.8251 168.113 15.6548C168.476 15.494 168.778 15.2224 168.972 14.8802C169.166 14.538 169.243 14.1433 169.192 13.7546C168.886 11.6314 167.574 10.216 165.822 9.13675C163.599 7.75671 161.146 7.43116 158.628 7.85579C155.363 8.40427 152.899 10.124 151.511 13.1212C149.982 16.4227 149.968 19.8445 151.205 23.2167C152.014 25.4354 153.431 27.2365 155.65 28.2981C157.111 28.973 158.713 29.3014 160.326 29.2571C163.002 29.2818 165.286 28.6378 167.113 26.8367C168.379 25.5911 169.239 24.1332 169.271 22.3109C169.271 21.902 169.127 21.5058 168.863 21.1897C168.6 20.8736 168.233 20.6571 167.825 20.577V20.577Z" fill="#889BB0"/>
<path d="M129.049 9.22523C128.873 8.16366 128.297 7.67533 127.286 7.66472C126.276 7.6541 125.718 8.1495 125.524 9.16861C125.458 9.53536 125.425 9.90724 125.427 10.2797C125.427 11.911 125.427 13.5387 125.427 15.17C125.427 15.3434 125.427 15.5239 125.427 15.807C125.2 15.6159 125.067 15.5274 124.97 15.4248C124.291 14.7318 123.461 14.1997 122.543 13.8686C121.625 13.5376 120.642 13.4163 119.669 13.514C118.805 13.5546 117.96 13.7794 117.193 14.1729C116.426 14.5664 115.755 15.1191 115.227 15.7928C114.296 17.0069 113.752 18.4646 113.662 19.9825C113.457 22.2401 113.716 24.4234 114.957 26.3979C115.374 27.1014 115.934 27.7128 116.602 28.1937C117.27 28.6747 118.032 29.015 118.839 29.1933C119.647 29.3717 120.484 29.3842 121.296 29.2302C122.109 29.0761 122.881 28.7589 123.564 28.2981C124.204 27.833 124.818 27.3332 125.402 26.8013C125.402 27.049 125.402 27.2366 125.43 27.4206C125.499 28.4821 126.168 29.2465 127.099 29.2995C128.204 29.3597 128.858 28.8289 129.067 27.6753C129.112 27.4135 129.132 27.1482 129.128 26.8827C129.128 21.2941 129.128 15.7067 129.128 10.1205C129.126 9.82046 129.099 9.52108 129.049 9.22523V9.22523ZM124.56 24.4942C124.277 25.0453 123.848 25.5108 123.318 25.8411C122.788 26.1713 122.176 26.3539 121.549 26.3695C120.922 26.3851 120.302 26.2331 119.755 25.9297C119.209 25.6263 118.756 25.1827 118.446 24.6463C117.839 23.6491 117.519 22.5087 117.519 21.3466C117.519 20.1845 117.839 19.0441 118.446 18.0469C119.827 15.6265 123.154 15.7893 124.531 18.2663C125.024 19.2336 125.276 20.3019 125.269 21.3838C125.281 22.4606 125.039 23.5255 124.56 24.4942V24.4942Z" fill="#889BB0"/>
<path d="M186.482 22.6364C186.536 21.1113 186.532 19.5826 186.435 18.0611C186.338 16.5395 185.856 15.1913 184.421 14.3739C183.556 13.9113 182.601 13.6373 181.619 13.5706C179.54 13.3618 177.486 13.3901 175.526 14.2323C174.274 14.7702 173.31 15.5876 172.9 16.9287C172.623 17.8381 172.9 18.6166 173.692 18.9457C174.317 19.2076 175.184 19.2996 175.727 18.3371C176.043 17.7748 176.457 17.2717 176.95 16.8509C178.098 15.9061 179.468 16.037 180.849 16.1962C181.248 16.2366 181.623 16.4011 181.92 16.6659C182.217 16.9307 182.42 17.2819 182.5 17.6683C182.604 18.0221 182.612 18.4043 182.687 18.7688C182.748 19.0696 182.622 19.2076 182.327 19.2748C181.443 19.4906 180.565 19.7313 179.677 19.9365C178.17 20.2904 176.641 20.5416 175.156 20.9662C173.67 21.3909 172.523 22.4029 172.192 23.9917C171.588 26.8863 173.666 29.0236 176.508 29.2571C178.452 29.4207 180.389 28.8837 181.961 27.7461C182.266 27.5338 182.586 27.3463 182.928 27.1269C183.151 27.4135 183.342 27.6718 183.543 27.9231C183.735 28.1765 183.94 28.4198 184.158 28.652C184.816 29.3137 185.557 29.4411 186.316 29.0377C187.075 28.6343 187.395 28.0363 187.1 27.0738C186.656 25.6364 186.447 24.1385 186.482 22.6364ZM182.252 24.8127C181.482 26.4015 178.921 27.3144 177.299 26.5819C176.925 26.4362 176.602 26.1861 176.37 25.8624C176.138 25.5386 176.007 25.1554 175.994 24.7596C175.939 24.3757 176.018 23.9848 176.218 23.6507C176.417 23.3166 176.726 23.0588 177.094 22.9195C177.931 22.6216 178.785 22.3722 179.651 22.1729C180.515 21.9464 181.385 21.7447 182.255 21.543C182.419 21.5177 182.583 21.5023 182.748 21.497C182.745 22.686 182.748 23.79 182.252 24.8127Z" fill="#889BB0"/>
<path d="M140.051 22.3357C141.828 22.3145 143.605 22.3357 145.374 22.2295C146.91 22.1482 147.579 21.4192 147.532 19.9365C147.421 17.4029 146.241 15.4744 143.936 14.2748C142.375 13.4503 140.681 13.3159 138.958 13.5317C136.242 13.8856 134.203 15.1878 133.163 17.7497C132.228 20.0042 132.193 22.5235 133.066 24.8021C133.37 25.6808 133.868 26.4821 134.525 27.148C135.182 27.8138 135.981 28.3276 136.865 28.652C137.615 28.9378 138.399 29.1292 139.199 29.2218C141.202 29.4447 143.155 29.2607 144.954 28.2239C145.921 27.6612 146.752 26.9535 147.144 25.8743C147.41 25.1666 147.281 24.5615 146.784 24.2253C146.498 24.0495 146.16 23.9709 145.824 24.0016C145.487 24.0323 145.17 24.1705 144.921 24.3951C144.651 24.6322 144.407 24.8976 144.123 25.1029C143.639 25.5103 143.123 25.8795 142.58 26.2069C141.181 26.9677 139.728 27.0172 138.361 26.168C136.994 25.3187 136.562 23.9422 136.462 22.3286C137.71 22.3357 138.879 22.3499 140.051 22.3357ZM140.12 16.1538C142.26 16.1538 143.626 17.6683 143.691 20.1241H136.537C136.616 17.7108 138.033 16.1432 140.116 16.1538H140.12Z" fill="#889BB0"/>
<path d="M108.652 15.0958C106.76 13.6167 104.569 13.2911 102.253 13.5565C101.297 13.6375 100.367 13.9099 99.5217 14.3572C98.6761 14.8044 97.9325 15.4171 97.3364 16.1574C96.3937 17.3607 95.832 18.8105 95.7215 20.3258C95.5272 22.3499 95.7898 24.2996 96.9444 26.0335C98.3543 28.1567 100.419 29.1475 102.951 29.2784C104.951 29.3846 106.839 29.0378 108.468 27.817C110.626 26.2069 111.4 23.9635 111.392 21.398C111.392 21.0937 111.418 20.7858 111.392 20.4815C111.187 18.3371 110.425 16.4723 108.652 15.0958ZM107.49 21.4015C107.531 22.5243 107.269 23.6377 106.731 24.6287C105.933 26.0052 104.695 26.5643 103.134 26.4298C102.447 26.3849 101.79 26.1375 101.248 25.7196C100.705 25.3018 100.304 24.733 100.095 24.0873C99.7225 23.1787 99.5422 22.2048 99.5651 21.2253C99.588 20.2457 99.8136 19.2811 100.228 18.3902C100.912 16.9005 102.149 16.2352 103.807 16.3166C104.504 16.3237 105.181 16.5448 105.744 16.9489C106.307 17.353 106.727 17.92 106.947 18.5707C107.239 19.4827 107.469 20.4131 107.634 21.3555L107.49 21.4015Z" fill="#889BB0"/>
<path d="M225.7 14.2114C224.016 13.4836 222.143 13.2882 220.341 13.6523C218.689 13.8995 217.184 14.7251 216.101 15.9771C215.025 17.2524 214.395 18.8341 214.302 20.4888C214.112 22.8313 214.536 25.0358 216.183 26.837C218.266 29.1087 220.946 29.5829 223.877 29.1158C225.528 28.8742 227.034 28.0505 228.114 26.7981C229.47 25.2446 229.981 23.401 230.027 21.3805C229.934 20.6728 229.88 19.9651 229.736 19.2574C229.537 18.1545 229.065 17.1169 228.361 16.2366C227.657 15.3564 226.743 14.6607 225.7 14.2114V14.2114ZM226.06 21.3805C226.125 22.5604 225.843 23.7338 225.247 24.7598C224.922 25.2847 224.465 25.7188 223.921 26.0211C223.377 26.3234 222.763 26.4838 222.138 26.487C221.513 26.4902 220.898 26.3361 220.35 26.0394C219.803 25.7427 219.342 25.3132 219.01 24.7917C218.093 23.2878 217.985 21.6317 218.291 19.9297C218.518 18.6877 218.967 17.573 220.09 16.8547C221.611 15.8709 224.305 15.9983 225.452 18.3126C225.908 19.2707 226.119 20.3238 226.067 21.3805H226.06Z" fill="#889BB0"/>
<path d="M242.148 27.014C241.976 26.3416 241.328 26.0479 240.382 26.193C239.926 26.2765 239.465 26.3285 239.001 26.3487C238.712 26.3655 238.427 26.2707 238.207 26.0844C237.988 25.8981 237.851 25.635 237.825 25.3508C237.761 24.9825 237.727 24.6098 237.721 24.2362C237.721 21.8441 237.721 19.452 237.721 17.06C237.721 16.6849 237.847 16.5504 238.224 16.5398C238.758 16.532 239.29 16.4882 239.818 16.4089C240.122 16.3784 240.405 16.2411 240.615 16.0221C240.825 15.8031 240.948 15.517 240.961 15.2163C240.974 14.9156 240.876 14.6202 240.686 14.3844C240.496 14.1485 240.226 13.9879 239.926 13.9319C239.404 13.8303 238.871 13.7934 238.339 13.8222C237.868 13.8222 237.717 13.7019 237.717 13.2277C237.717 12.06 237.717 10.8887 237.609 9.72451C237.564 9.28071 237.346 8.87159 236.999 8.58413C236.652 8.29668 236.206 8.15357 235.753 8.18523C235.296 8.18431 234.855 8.35509 234.521 8.66279C234.187 8.97048 233.984 9.39194 233.955 9.84129C233.897 10.7047 233.887 11.5681 233.861 12.4351C233.861 12.8703 233.861 13.3091 233.861 13.8151C233.531 13.8151 233.308 13.8151 233.085 13.8151C232.006 13.9106 231.39 14.6644 231.646 15.5844C231.808 16.1329 232.344 16.4655 233.156 16.515C233.843 16.5575 233.843 16.5575 233.843 17.2404C233.843 19.3282 233.815 21.416 233.843 23.5002C233.868 24.5824 233.957 25.6624 234.11 26.7344C234.168 27.2771 234.398 27.7881 234.767 28.1955C235.136 28.603 235.626 28.8865 236.167 29.0062C237.788 29.4516 239.509 29.3872 241.091 28.8222C241.462 28.7009 241.775 28.4497 241.97 28.1163C242.165 27.7828 242.228 27.3905 242.148 27.014V27.014Z" fill="#889BB0"/>
<path d="M211.9 13.7125C210.396 13.256 208.814 13.4117 207.81 14.8838C207.612 15.1739 207.379 15.4428 207.059 15.8569C207.008 15.5455 206.976 15.3862 206.954 15.2235C206.807 14.1159 206.257 13.5568 205.271 13.5037C204.285 13.4506 203.656 13.9106 203.39 14.997C203.311 15.3455 203.274 15.7017 203.278 16.0586C203.278 19.0451 203.278 22.0328 203.278 25.0218C203.278 25.7684 203.278 26.515 203.278 27.2617C203.304 28.3232 203.998 29.176 204.893 29.268C206.026 29.3848 206.767 28.8505 207.051 27.6934C207.12 27.3962 207.155 27.0923 207.156 26.7875C207.156 25.2412 207.113 23.6948 207.184 22.1555C207.239 21.0578 207.379 19.9658 207.605 18.8894C207.886 17.5306 208.605 16.837 209.839 16.8052C210.591 16.845 211.335 16.977 212.054 17.198C212.395 17.2972 212.759 17.2815 213.089 17.1532C213.418 17.0249 213.695 16.7915 213.874 16.4903C214.052 16.2059 214.125 15.8699 214.079 15.5391C214.034 15.2083 213.874 14.903 213.626 14.675C213.117 14.2501 212.532 13.9236 211.9 13.7125V13.7125Z" fill="#889BB0"/>
<path d="M200.764 14.4306C199.9 13.7978 198.845 13.47 197.768 13.4999C197.266 13.4913 196.77 13.605 196.324 13.831C195.878 14.057 195.495 14.3882 195.211 14.795L194.412 15.8566C194.322 15.4285 194.276 15.1135 194.186 14.795C193.912 13.8609 193.423 13.4999 192.47 13.5035C192.078 13.4738 191.688 13.5889 191.377 13.8263C191.066 14.0638 190.855 14.4065 190.787 14.788C190.692 15.0958 190.64 15.4148 190.632 15.7363C190.62 19.2324 190.62 22.7297 190.632 26.2282C190.632 26.6351 190.632 27.0456 190.65 27.449C190.658 27.8935 190.827 28.3205 191.128 28.6528C191.428 28.9852 191.839 29.2008 192.287 29.2607C193.412 29.3315 194.164 28.8043 194.384 27.7391C194.466 27.3051 194.507 26.8644 194.506 26.4228C194.527 24.8092 194.477 23.1956 194.553 21.5856C194.599 20.623 194.743 19.6675 194.984 18.7335C195.376 17.2084 196.268 16.6457 197.844 16.8226C198.332 16.8901 198.813 16.999 199.282 17.1482C199.636 17.2895 200.031 17.2953 200.39 17.1643C200.748 17.0333 201.043 16.775 201.217 16.4405C201.394 16.1064 201.445 15.722 201.362 15.3545C201.279 14.987 201.068 14.6599 200.764 14.4306V14.4306Z" fill="#889BB0"/>
</svg>
