<svg width="1440" height="342" viewBox="0 0 1440 342" fill="none" xmlns="http://www.w3.org/2000/svg">
<g clip-path="url(#clip0)">
<path d="M618.508 214.185H556.278C538.18 194.691 515.05 175.141 476.677 162.915C386.331 134.129 637.177 156.678 623.581 34.909C609.985 -86.861 764.986 144.701 751.261 199.749C750.036 204.67 748.453 209.494 746.526 214.185H698.884C707.565 208.37 714.107 200.642 716.457 191.219C723.314 163.715 691.845 132.185 664.63 125.399C637.413 118.613 609.79 135.409 602.932 162.915C600.042 174.509 607.209 194.467 618.508 214.185V214.185Z" fill="url(#paint0_linear)"/>
<mask id="mask0" mask-type="alpha" maskUnits="userSpaceOnUse" x="-53" y="103" width="229" height="239">
<path d="M0.435001 115.797C26.278 115.797 87.375 171.014 87.375 196.96C87.375 222.907 66.425 243.94 40.583 243.94C14.743 243.94 -20.417 222.907 -20.417 196.96C-20.417 171.014 14.743 149.98 40.583 149.98L0.435001 115.797ZM97.307 315C82 226.706 224.947 209 157.205 175.763C89.463 142.526 92.245 103.06 40.583 103C-11.1 103 -53 145.068 -53 196.96C-53 248.851 112.614 403.294 97.307 315Z" fill="white"/>
</mask>
<g mask="url(#mask0)">
<path d="M0.435001 115.797C26.278 115.797 87.375 171.014 87.375 196.96C87.375 222.907 66.425 243.94 40.583 243.94C14.743 243.94 -20.417 222.907 -20.417 196.96C-20.417 171.014 14.743 149.98 40.583 149.98L0.435001 115.797ZM97.307 315C82 226.706 224.947 209 157.205 175.763C89.463 142.526 92.245 103.06 40.583 103C-11.1 103 -53 145.068 -53 196.96C-53 248.851 112.614 403.294 97.307 315Z" fill="#692FDC"/>
<path fill-rule="evenodd" clip-rule="evenodd" d="M209.95 163.554L186.494 210.779C180.242 185.705 151.328 156.68 126.152 162.957C100.976 169.234 89.0721 208.437 95.3241 233.51C101.576 258.585 127.054 273.824 152.229 267.547C177.405 261.27 216.201 188.629 209.949 163.554H209.95ZM40.0981 305.74C-41.8709 341.952 67.9181 143.895 118.268 131.341C168.62 118.787 219.574 149.265 232.078 199.413C244.518 249.555 205.55 256.403 189.689 330.174C173.829 403.945 122.066 269.527 40.0981 305.74V305.74Z" fill="url(#paint1_linear)"/>
<path fill-rule="evenodd" clip-rule="evenodd" d="M107.239 198.785L106.896 194.074C106.741 192.511 106.396 190.966 106.137 189.418C105.989 188.646 105.871 187.869 105.691 187.106L105.055 184.836L104.405 182.574L104.076 181.446L103.656 180.347L101.933 175.977C100.551 173.173 99.232 170.333 97.494 167.735C94.188 162.44 90.457 157.328 85.847 152.986C85.275 152.442 84.749 151.841 84.131 151.348L82.297 149.839C81.06 148.847 79.85 147.807 78.485 146.99C77.145 146.138 75.813 145.261 74.42 144.498C72.992 143.798 71.547 143.128 70.09 142.497C69.33 142.169 69.407 142.367 70.176 142.735C71.45 143.345 72.708 143.981 73.949 144.636C75.19 145.292 76.322 146.137 77.489 146.902L79.211 148.091C79.786 148.481 80.294 148.968 80.834 149.405L83.985 152.117C84.966 153.094 85.915 154.1 86.87 155.09C87.342 155.59 87.83 156.073 88.285 156.586L89.588 158.186C90.442 159.261 91.35 160.285 92.165 161.385L94.549 164.737C97.578 169.233 100.274 174.024 102.072 179.185C103.125 181.711 103.708 184.388 104.411 187.024C104.725 188.351 104.876 189.71 105.1 191.054C105.304 192.401 105.537 193.745 105.554 195.108L105.732 199.321C105.749 200.724 105.602 202.127 105.531 203.527L105.388 205.627C105.351 206.327 105.187 207.016 105.09 207.71L104.385 211.859C104.061 213.223 103.668 214.572 103.303 215.925L102.733 217.948L101.991 219.914C101.479 221.218 101.025 222.546 100.452 223.821L98.596 227.586C95.921 232.477 92.897 237.257 89.04 241.353C88.571 241.875 88.121 242.417 87.633 242.921L86.104 244.372C85.066 245.318 84.088 246.338 82.979 247.203L79.623 249.761C79.071 250.2 78.479 250.578 77.873 250.936L76.068 252.028C73.707 253.563 71.075 254.603 68.536 255.779C67.216 256.253 65.883 256.696 64.555 257.14C63.888 257.351 63.234 257.602 62.556 257.773L60.511 258.246C55.088 259.657 49.482 259.979 43.948 259.973L39.791 259.747L38.752 259.688C38.407 259.652 38.064 259.591 37.719 259.543L35.657 259.235C32.886 258.92 30.202 258.158 27.502 257.472C26.157 257.109 24.867 256.57 23.55 256.117L21.587 255.399C20.94 255.139 20.322 254.817 19.689 254.526C18.434 253.922 17.168 253.336 15.933 252.695L12.366 250.525C7.741 247.455 3.361 243.94 -0.273998 239.72L-1.678 238.178L-2.945 236.519C-3.772 235.401 -4.653 234.319 -5.42 233.159C-6.881 230.789 -8.407 228.451 -9.532 225.891C-10.839 223.418 -11.672 220.739 -12.591 218.107C-12.99 216.771 -13.271 215.4 -13.603 214.048L-14.073 212.013L-14.36 209.945C-14.538 208.566 -14.736 207.189 -14.884 205.811L-15.035 201.66C-15.05 200.969 -15.105 200.278 -15.085 199.588L-14.976 197.517C-14.89 196.139 -14.861 194.756 -14.732 193.382C-14.0863 187.264 -12.6003 181.263 -10.316 175.551L-8.411 171.335C-7.701 169.969 -6.902 168.646 -6.135 167.304C-5.405 165.935 -4.449 164.717 -3.558 163.451L-2.192 161.571C-1.732 160.948 -1.188 160.393 -0.685001 159.803C0.196999 158.811 1.079 157.809 1.994 156.837L4.949 154.119C5.453 153.678 5.925 153.198 6.457 152.79L8.056 151.57C9.135 150.774 10.168 149.912 11.283 149.174C13.553 147.756 15.744 146.213 18.124 145.03C19.301 144.419 20.428 143.702 21.63 143.16L25.204 141.481C26.02 141.088 25.402 140.796 24.563 141.18C23.393 141.716 22.218 142.232 21.034 142.733C19.873 143.282 18.739 143.901 17.579 144.465C15.221 145.53 13.05 146.951 10.778 148.228C6.427 151.05 2.135 154.181 -1.337 158.105C-3.257 160.044 -4.814 162.299 -6.415 164.506C-7.204 165.618 -7.837 166.837 -8.54 168.005C-9.224 169.187 -9.924 170.357 -10.452 171.62L-12.133 175.348C-12.642 176.609 -13.042 177.915 -13.494 179.196L-14.148 181.125C-14.365 181.767 -14.488 182.438 -14.66 183.093L-15.622 187.039C-15.901 188.424 -16.072 189.828 -16.297 191.223L-16.612 193.317C-16.693 194.017 -16.709 194.722 -16.76 195.425L-17 199.646C-16.988 201.054 -16.914 202.463 -16.865 203.873L-16.775 205.989C-16.71 206.691 -16.597 207.39 -16.508 208.092L-15.908 212.299L-14.904 216.436C-14.723 217.123 -14.574 217.82 -14.359 218.496L-13.647 220.507C-11.876 225.923 -9.041 230.936 -5.795 235.575L-3.215 238.96C-2.307 240.048 -1.317 241.067 -0.365002 242.116L1.084 243.668L2.654 245.098C3.714 246.036 4.728 247.028 5.834 247.909C8.096 249.618 10.319 251.387 12.793 252.79C15.161 254.363 17.762 255.521 20.312 256.772C21.611 257.342 22.96 257.801 24.286 258.31L26.288 259.049C26.968 259.25 27.658 259.427 28.343 259.614C29.718 259.976 31.092 260.358 32.476 260.683L36.689 261.369C37.393 261.467 38.093 261.617 38.801 261.668L40.926 261.808C42.343 261.885 43.76 262.014 45.178 262.031L49.439 261.888C50.148 261.846 50.863 261.866 51.568 261.767L53.688 261.49C59.37 260.895 64.914 259.22 70.209 257.035L74.082 255.222C75.367 254.604 76.56 253.816 77.801 253.109L79.641 252.012C80.249 251.637 80.808 251.192 81.393 250.783C82.55 249.943 83.711 249.107 84.85 248.243C86.977 246.338 89.227 244.542 91.109 242.373L92.57 240.796C93.062 240.274 93.544 239.743 93.966 239.162L96.578 235.74C97.029 235.18 97.398 234.563 97.776 233.952L98.901 232.111L100.006 230.258C100.381 229.645 100.648 228.972 100.97 228.329L102.782 224.412C103.278 223.063 103.742 221.701 104.207 220.342C104.43 219.659 104.684 218.987 104.874 218.296L105.376 216.202C105.69 214.803 106.064 213.418 106.303 212.01C106.661 209.174 107.179 206.36 107.184 203.513L107.267 201.147L107.3 199.965C107.3 199.572 107.259 199.178 107.239 198.785" fill="#692FDC"/>
</g>
</g>
<defs>
<linearGradient id="paint0_linear" x1="604.561" y1="0" x2="604.561" y2="211.002" gradientUnits="userSpaceOnUse">
<stop stop-color="#F5F6F7"/>
<stop offset="1" stop-color="#F5F6F7" stop-opacity="0"/>
</linearGradient>
<linearGradient id="paint1_linear" x1="218.658" y1="204.773" x2="10.5647" y2="282.759" gradientUnits="userSpaceOnUse">
<stop stop-color="white" stop-opacity="0.64"/>
<stop offset="1" stop-color="white" stop-opacity="0"/>
</linearGradient>
<clipPath id="clip0">
<rect width="1440" height="342" fill="white"/>
</clipPath>
</defs>
</svg>
