<svg width="1440" height="640" viewBox="0 0 1440 640" fill="none" xmlns="http://www.w3.org/2000/svg">
<g clip-path="url(#clip0)">
<path d="M1545.86 365.867C1545.66 366.193 1545.45 366.518 1545.23 366.837C1545.44 366.516 1545.65 366.189 1545.87 365.867H1545.86ZM997.3 199.5C970.602 221.05 1003.03 266.446 1013.55 297.016C1013.66 297.356 1013.79 297.691 1013.91 298.031C1014.45 299.581 1014.98 301.134 1015.55 302.673C1018.28 310.242 1021.32 317.696 1024.65 325.018C1032.72 342.738 1116.42 166.242 1054.39 376.365C992.366 586.488 1145.26 298.096 1159.18 311.1C1173.12 324.088 1122.14 444.974 1138.55 455.266C1155.61 465.908 1172.38 473.83 1188.2 479.929C1190.18 480.69 1192.11 481.503 1194.06 482.198L1199.87 484.17C1203.7 485.452 1207.41 486.824 1211.12 487.81L1217.27 489.587C1219.32 490.154 1221.33 490.828 1223.4 491.265L1235.63 494.151C1251.98 497.536 1268.09 499.463 1283.67 500.292L1295.27 500.64C1297.11 500.739 1298.9 500.621 1300.66 500.61L1305.86 500.512C1312.7 500.537 1319.18 499.88 1326.07 499.492C1327.77 499.422 1329.45 499.165 1331.15 498.986L1336.23 498.402C1339.63 498.007 1343.04 497.679 1346.43 497.044L1356.63 495.346C1360.02 494.706 1363.39 493.893 1366.79 493.167L1371.83 492.053C1373.51 491.638 1375.19 491.145 1376.88 490.689C1380.25 489.749 1383.65 488.835 1387.01 487.856L1396.84 484.565C1398.45 484.003 1400.06 483.531 1401.6 482.908L1406.15 481.11C1429.94 471.761 1446.53 461.965 1458.81 454.19L1463.15 451.41C1464.56 450.519 1465.93 449.654 1467.19 448.727L1474.39 443.659L1477.65 441.371C1478.66 440.589 1479.63 439.837 1480.58 439.111C1482.46 437.661 1316.57 338.464 1318.18 337.228C1331.24 326.922 1511.83 412.95 1524.02 399.293L1528.56 394.118C1529.31 393.239 1530.1 392.399 1530.81 391.483L1532.97 388.756L1536.8 383.912C1538.06 382.298 1539.37 380.742 1540.51 379.074L1547.33 369.533C1549.49 366.341 1551.5 363.111 1553.55 359.974C1561.44 347.25 1568.2 334.852 1573.39 322.851L1575.39 318.427C1576.08 316.979 1576.59 315.472 1577.19 314.02L1580.56 305.431C1580.83 304.729 1581.12 304.039 1581.36 303.336L1582.07 301.231L1583.46 297.091C1584.36 294.359 1585.28 291.705 1586.1 289.091C1587.56 283.813 1589.02 278.833 1590.23 274.093L1593.24 260.659C1594.68 252.217 1596.02 245.024 1596.54 239.086L1597.41 231.238C1597.62 228.966 1597.66 227.032 1597.74 225.474C1597.88 222.352 1597.89 220.698 1597.78 220.62C1597.66 220.541 1597.43 222.04 1597.08 224.996L1596.46 230.508L1595.31 238.081L1594.64 242.622L1594.28 245.077C1594.14 245.913 1593.96 246.763 1593.79 247.635C1593.11 251.122 1592.37 254.925 1591.57 259.032C1590.67 263.118 1589.53 267.465 1588.42 272.117C1587.91 274.454 1587.15 276.805 1586.44 279.239L1584.22 286.741C1584.03 287.384 1583.84 288.031 1583.65 288.682C1583.43 289.323 1583.21 289.969 1582.98 290.618L1581.6 294.559C1580.67 297.217 1579.72 299.938 1578.75 302.722L1575.35 311.1L1573.59 315.421C1573.02 316.881 1572.29 318.295 1571.63 319.756L1567.51 328.644C1566.04 331.631 1564.41 334.603 1562.83 337.665L1560.41 342.284C1559.52 343.809 1558.62 345.334 1557.73 346.86C1556.83 348.397 1555.92 349.946 1555.01 351.508C1554.07 353.059 1553.22 354.672 1552.18 356.191L1549.8 359.838C1579.24 313.479 1596.3 258.484 1596.3 199.5C1596.3 34.091 1462.21 -100 1296.8 -100C1131.39 -100 1223.39 17 997.3 199.5Z" fill="#692FDC"/>
<path fill-rule="evenodd" clip-rule="evenodd" d="M1079.13 402.145C1079.14 401.758 1079.13 401.371 1079.14 400.984C1079.13 401.371 1079.13 401.759 1079.13 402.145ZM1441.14 297.101C1500.38 388.324 1474.44 510.309 1383.2 569.562C1291.96 628.816 1169.97 602.899 1110.72 511.676C1089.6 479.146 1079.31 442.705 1078.95 406.591L1078.95 409.454C1078.92 410.664 1079.02 411.861 1079.06 413.051L1079.22 416.591C1079.28 417.761 1079.33 418.923 1079.38 420.074L1079.7 423.488C1079.93 425.743 1080.09 427.968 1080.35 430.138L1081.26 436.518C1081.42 437.558 1081.53 438.599 1081.73 439.611C1081.93 440.626 1082.12 441.63 1082.31 442.623L1083.44 448.462L1084.79 453.986L1085.44 456.653L1085.76 457.96L1086.14 459.235L1087.61 464.167C1088.08 465.766 1088.51 467.332 1089.06 468.805C1090.12 471.768 1091.04 474.575 1092.01 477.149L1094.87 484.23C1095.09 484.77 1095.29 485.305 1095.52 485.816L1096.2 487.299L1097.45 490.044L1099.53 494.632L1101.16 497.894C1102.03 499.649 1102.44 500.56 1102.34 500.558C1102.25 500.556 1101.67 499.638 1100.63 497.868C1100.12 496.978 1099.44 495.898 1098.75 494.569L1096.41 489.931C1094.57 486.471 1092.74 482.021 1090.51 476.85L1087.36 468.363C1086.33 465.317 1085.35 462.045 1084.26 458.613C1083.78 456.878 1083.34 455.085 1082.86 453.255L1082.14 450.475L1081.77 449.06C1081.66 448.585 1081.57 448.1 1081.47 447.616C1081.07 445.676 1080.67 443.694 1080.25 441.671C1080.06 440.656 1079.8 439.643 1079.67 438.597C1079.51 437.555 1079.35 436.503 1079.18 435.441C1077.75 426.961 1077.04 417.704 1076.83 407.859C1076.84 405.396 1076.79 402.896 1076.84 400.361L1077.18 392.656C1077.22 391.327 1077.38 390 1077.5 388.659L1077.87 384.616L1078.09 382.338C1078.15 381.578 1078.29 380.83 1078.39 380.077C1078.61 378.575 1078.82 377.079 1079.04 375.597C1080.87 363.697 1211.3 346.452 1214.81 336.089C1215.26 334.832 1088.22 339.549 1088.74 338.075L1089.55 335.78L1090.52 333.353C1091.2 331.678 1091.92 329.888 1092.68 327.976C1093.05 327.013 1093.49 326.046 1093.95 325.051L1095.35 321.963C1099.34 313.274 1104.98 301.928 1114.75 288.253L1116.62 285.63C1117.25 284.736 1117.97 283.897 1118.65 283.012L1122.9 277.675C1124.4 275.932 1125.95 274.209 1127.47 272.482C1128.24 271.625 1128.99 270.753 1129.77 269.922L1132.15 267.502C1133.76 265.885 1135.33 264.23 1136.97 262.661L1141.99 258.07C1143.63 256.508 1145.4 255.103 1147.13 253.67L1149.73 251.525C1150.6 250.82 1151.43 250.075 1152.34 249.429C1156.01 246.746 1159.35 244.061 1163.13 241.624L1165.96 239.709C1166.93 239.072 1167.87 238.365 1168.92 237.763L1175.45 233.799C1184.34 228.673 1193.92 223.966 1204.15 219.975L1211.93 217.185C1213.22 216.685 1214.58 216.336 1215.91 215.915L1219.94 214.694C1222.34 213.906 1224.87 213.336 1227.45 212.67L1231.36 211.675C1232.68 211.36 1234.04 211.117 1235.4 210.828C1246.31 208.526 1258.4 206.887 1271.62 206.645C1284.36 206.443 1299.53 291.375 1311.88 293.543C1324.21 295.726 1305.26 81.9089 1346.31 220.011C1387.35 358.112 1370.3 230.793 1381.1 237.676C1385.55 240.506 1389.89 243.535 1394.12 246.737C1394.99 247.384 1395.84 248.048 1396.69 248.71C1396.88 248.856 1397.07 248.995 1397.25 249.141C1414.01 262.231 1428.91 278.271 1441.14 297.101Z" fill="#12C3F7"/>
<path fill-rule="evenodd" clip-rule="evenodd" d="M1249.13 10.1449C1249.14 9.7579 1249.13 9.3709 1249.14 8.9839C1249.13 9.3709 1249.13 9.7589 1249.13 10.1449H1249.13ZM1611.14 -94.8991C1670.38 -3.6761 1644.44 118.309 1553.2 177.562C1461.96 236.816 1381.93 -3.34109 1280.73 119.676C1255.69 150.102 1249.32 50.7049 1248.95 14.5909L1248.95 17.4539C1248.92 18.6639 1249.02 19.8609 1249.06 21.0509L1249.22 24.5909C1249.28 25.7609 1249.33 26.9229 1249.38 28.0739L1249.7 31.4879C1249.93 33.7429 1250.09 35.9679 1250.35 38.1379L1251.26 44.5179C1251.42 45.5579 1251.53 46.5989 1251.73 47.6109C1251.93 48.6259 1252.12 49.6299 1252.31 50.6229L1253.44 56.4619L1254.79 61.9859L1255.44 64.6529L1255.76 65.9599L1256.14 67.2349L1257.61 72.1669C1258.08 73.7659 1258.51 75.3319 1259.06 76.8049C1260.12 79.7679 1261.04 82.5749 1262.01 85.1489L1264.87 92.2299C1265.09 92.7699 1265.29 93.3049 1265.52 93.8159L1266.2 95.2989L1267.45 98.0439L1269.53 102.632L1271.16 105.894C1272.03 107.649 1272.44 108.56 1272.35 108.558C1272.26 108.556 1271.67 107.638 1270.63 105.868C1270.12 104.978 1269.44 103.898 1268.75 102.569L1266.41 97.9309C1264.57 94.4709 1262.74 90.0209 1260.51 84.8499L1257.36 76.3629C1256.33 73.3169 1255.35 70.0449 1254.26 66.6129C1253.78 64.8779 1253.34 63.0849 1252.86 61.2549L1252.14 58.4749L1251.78 57.0599C1251.66 56.5849 1251.57 56.0999 1251.47 55.6159C1251.07 53.6759 1250.67 51.6939 1250.25 49.6709C1250.06 48.6559 1249.8 47.6429 1249.67 46.5969C1249.51 45.5549 1249.35 44.5029 1249.19 43.4409C1247.75 34.9609 1247.04 25.7039 1246.84 15.8589C1246.84 13.3959 1246.79 10.8959 1246.84 8.3609L1247.19 0.655899C1247.22 -0.673101 1247.38 -2.00011 1247.5 -3.34111L1247.88 -7.38411L1248.09 -9.66211C1248.15 -10.4221 1248.29 -11.1701 1248.39 -11.9231C1248.61 -13.4251 1248.83 -14.9211 1249.04 -16.4031C1250.88 -28.3031 1381.3 -45.5481 1384.81 -55.9111C1385.26 -57.1681 1258.22 -52.4511 1258.74 -53.9251L1259.55 -56.2201L1260.52 -58.6471C1261.2 -60.3221 1261.92 -62.1121 1262.68 -64.0241C1263.05 -64.9871 1263.49 -65.9541 1263.95 -66.9491L1265.35 -70.0371C1269.34 -78.7261 1274.98 -90.0721 1284.75 -103.747L1286.62 -106.37C1287.25 -107.264 1287.97 -108.103 1288.65 -108.988L1292.9 -114.325C1294.4 -116.068 1295.95 -117.791 1297.47 -119.518C1298.24 -120.375 1298.99 -121.247 1299.77 -122.078L1302.15 -124.498C1303.76 -126.115 1305.33 -127.77 1306.98 -129.339L1312 -133.93C1313.63 -135.492 1315.4 -136.897 1317.13 -138.33L1319.73 -140.475C1320.6 -141.18 1321.43 -141.925 1322.34 -142.571C1326.01 -145.254 1329.35 -147.939 1333.13 -150.376L1335.96 -152.291C1336.93 -152.928 1337.88 -153.635 1338.92 -154.237L1345.45 -158.201C1354.34 -163.327 1363.92 -168.034 1374.15 -172.025L1381.93 -174.815C1383.22 -175.315 1384.58 -175.664 1385.91 -176.085L1389.94 -177.306C1392.34 -178.094 1394.87 -178.664 1397.45 -179.33L1401.36 -180.325C1402.69 -180.64 1404.04 -180.883 1405.4 -181.172C1416.31 -183.474 1428.4 -185.113 1441.62 -185.355C1454.36 -185.557 1469.53 -100.625 1481.88 -98.4571C1494.21 -96.2741 1475.26 -310.091 1516.31 -171.989C1557.35 -33.8881 1540.3 -161.207 1551.1 -154.324C1555.55 -151.494 1559.89 -148.465 1564.13 -145.263C1564.99 -144.616 1565.84 -143.952 1566.69 -143.29C1566.88 -143.144 1567.07 -143.005 1567.25 -142.859C1584.01 -129.769 1598.91 -113.729 1611.14 -94.8991V-94.8991Z" fill="#12C3F7"/>
<path fill-rule="evenodd" clip-rule="evenodd" d="M921.417 195.414L928.014 198.973C931.456 200.825 930.766 201.468 927.516 199.775L923.763 197.821C922.522 197.154 921.239 196.559 920.04 195.817L912.749 191.547C910.369 190.045 908.032 188.474 905.671 186.94L903.907 185.778L902.202 184.533L898.788 182.043C889.705 175.302 881.223 167.787 873.438 159.582C857.754 142.997 845.209 123.048 836.168 102.066C827.045 81.0599 821.713 58.5009 820.308 35.5329C819.614 24.0559 819.775 12.5829 820.925 1.17294C822.142 -10.2271 824.337 -21.5511 827.625 -32.6601C828.969 -37.5571 830.808 -42.3101 832.545 -47.1021C834.55 -51.7871 836.427 -56.5401 838.772 -61.0741L840.455 -64.5091C840.742 -65.0791 841.001 -65.6611 841.312 -66.2181L842.237 -67.8911L845.931 -74.579C847.233 -76.764 848.591 -78.9151 849.91 -81.0841L850.904 -82.7071C851.231 -83.2511 851.563 -83.7911 851.929 -84.3091L854.061 -87.4551L856.187 -90.607C856.544 -91.129 856.885 -91.6631 857.255 -92.1771L858.39 -93.6991L862.92 -99.792C864.499 -101.767 866.12 -103.708 867.719 -105.668C869.283 -107.66 871.018 -109.501 872.712 -111.381C876.035 -115.203 879.7 -118.701 883.298 -122.269L888.956 -127.351L890.377 -128.618L891.857 -129.815L894.825 -132.205C910.689 -144.929 928.548 -155.173 947.513 -162.548C957.029 -166.158 966.819 -169.003 976.753 -171.145C986.71 -173.21 996.804 -174.487 1006.93 -175.181L1014.54 -175.559L1022.16 -175.579L1024.06 -175.581C1024.7 -175.58 1025.33 -175.531 1025.97 -175.507L1029.77 -175.331L1033.58 -175.153C1034.84 -175.083 1036.11 -174.926 1037.37 -174.816L1041.16 -174.453C1042.42 -174.318 1043.69 -174.246 1044.95 -174.034L1052.49 -172.931C1053.75 -172.775 1054.98 -172.481 1056.23 -172.247L1059.97 -171.507C1061.21 -171.25 1062.46 -171.03 1063.7 -170.743L1067.39 -169.815L1071.09 -168.887L1072.94 -168.425L1074.76 -167.875L1082.06 -165.677C1084.48 -164.877 1086.86 -163.991 1089.27 -163.152C1090.46 -162.711 1091.68 -162.338 1092.85 -161.84L1096.38 -160.388L1099.91 -158.934L1101.68 -158.201L1103.4 -157.387L1110.3 -154.117C1112.57 -152.973 1114.79 -151.723 1117.03 -150.525C1118.15 -149.911 1119.28 -149.331 1120.37 -148.687L1123.62 -146.697L1126.86 -144.701L1128.48 -143.7C1129.01 -143.363 1129.52 -142.985 1130.04 -142.63L1136.26 -138.285L1137.03 -137.74L1137.78 -137.158L1139.27 -135.992L1142.25 -133.659C1143.24 -132.874 1144.25 -132.117 1145.21 -131.309L1148.07 -128.828L1150.92 -126.348L1152.34 -125.108L1153.71 -123.804L1159.16 -118.576C1160.93 -116.786 1162.64 -114.931 1164.39 -113.116L1165.7 -111.748L1166.36 -111.063L1166.98 -110.349L1169.47 -107.494C1172.88 -103.757 1175.95 -99.729 1179.1 -95.764L1183.55 -89.609C1183.91 -89.093 1184.3 -88.589 1184.65 -88.062L1187.76 -83.29L1189.83 -80.105L1191.75 -76.827L1193.66 -73.5481L1194.62 -71.909L1195.5 -70.2261L1199 -63.4921L1202.17 -56.6011C1206.29 -47.1636 1209.72 -37.4358 1212.43 -27.4961C1215.02 -17.5367 1216.89 -7.40385 1218.02 2.82394L1218.75 10.5139L1219.14 18.2449C1219.17 18.8899 1219.21 19.5349 1219.23 20.1799L1219.24 22.118L1219.25 25.9939C1219.25 27.2859 1219.27 28.5799 1219.26 29.8719L1219.09 33.7469L1218.91 37.6219C1218.88 38.2669 1218.87 38.914 1218.82 39.558L1218.64 41.4879L1217.89 49.2029L1216.76 56.8579L1216.48 58.7679L1216.09 60.6609L1215.33 64.4409C1213.2 74.4779 1210.41 84.3899 1206.67 93.9299C1206.21 95.1249 1205.81 96.3419 1205.3 97.5179L1203.79 101.046L1202.27 104.57L1201.51 106.33L1200.66 108.051L1197.28 114.931C1196.08 117.191 1194.81 119.405 1193.58 121.641C1188.49 130.454 1182.92 138.796 1176.55 146.475C1175.77 147.441 1175.03 148.446 1174.2 149.377L1171.73 152.182L1169.26 154.987C1168.84 155.452 1168.44 155.929 1168.02 156.384L1166.71 157.727L1161.49 163.114L1156 168.287C1154.26 170.009 1152.34 171.552 1150.49 173.167L1147.69 175.574L1146.99 176.175L1146.26 176.744L1144.8 177.88C1142.85 179.387 1140.93 180.936 1138.96 182.412L1132.91 186.682C1057.42 149.754 1116.22 197.188 1107.43 201.402C1098.58 205.569 1089.41 209.207 1080.03 212.202C1074.7 213.848 1069.31 215.269 1063.87 216.46C1020.45 226.491 973.403 221.893 930.593 200.08C833.95 150.839 795.524 32.575 844.766 -64.068C853.763 -81.726 865.073 -97.43 878.126 -111.021C878.51 -111.437 878.886 -111.862 879.285 -112.266L880.629 -113.588L881.166 -114.115C881.923 -114.869 882.683 -115.618 883.451 -116.358L886.015 -118.872L888.835 -121.378L891.653 -123.886L893.063 -125.141C893.543 -125.546 894.04 -125.933 894.528 -126.331L900.403 -131.068L906.496 -135.526C914.728 -141.316 939.984 -78.4561 948.998 -82.9601C958.043 -87.3951 950.826 -159.192 960.443 -162.201L967.7 -164.311C968.35 -164.477 969.001 -164.631 969.652 -164.791C983.411 -168.428 997.524 -170.563 1011.74 -171.158C1014.46 -171.301 1017.18 -171.399 1019.9 -171.368C1029.96 -171.414 1040.04 -170.8 1049.98 -169.176L1051.85 -168.904C1052.48 -168.818 1053.1 -168.724 1053.71 -168.59L1057.42 -167.857C1059.89 -167.35 1062.37 -166.931 1064.8 -166.258C1067.24 -165.635 1069.69 -165.033 1072.13 -164.388L1079.35 -162.161L1081.15 -161.605C1081.75 -161.401 1082.34 -161.176 1082.93 -160.965L1086.48 -159.671L1090.03 -158.38C1091.21 -157.947 1092.35 -157.417 1093.52 -156.941C1093.91 -156.773 1094.3 -156.609 1094.7 -156.444C1095.08 -156.284 1095.47 -156.121 1095.86 -155.958C1097.4 -155.315 1098.94 -154.674 1100.46 -153.984L1102.97 -152.787C1103.9 -152.348 1104.84 -151.902 1105.77 -151.447L1107.27 -150.729L1108.96 -149.923L1110.61 -149.035L1113.91 -147.265L1117.21 -145.499C1118.32 -144.919 1119.36 -144.231 1120.44 -143.604C1122.58 -142.312 1124.74 -141.061 1126.85 -139.737L1133.08 -135.578L1134.64 -134.538L1136.15 -133.423L1139.15 -131.188L1142.16 -128.95C1143.16 -128.196 1144.09 -127.37 1145.07 -126.583L1147.95 -124.192L1149.4 -122.995L1150.12 -122.395L1150.81 -121.76L1156.32 -116.673C1163.5 -109.7 1170.12 -102.146 1176.16 -94.159C1182.09 -86.092 1187.44 -77.622 1192.25 -68.872L1195.74 -62.245C1196.85 -60.006 1197.89 -57.7351 1198.97 -55.4851C1200.09 -53.2501 1200.99 -50.9191 1201.97 -48.6231L1203.42 -45.1691C1203.9 -44.0181 1204.29 -42.829 1204.73 -41.662L1206.02 -38.1421C1206.44 -36.9651 1206.91 -35.8031 1207.26 -34.6021L1209.48 -27.438C1210.18 -25.036 1210.75 -22.599 1211.38 -20.178C1212.04 -17.762 1212.49 -15.298 1212.98 -12.843L1213.71 -9.15805L1213.89 -8.23605L1214.02 -7.30606L1214.29 -5.44806L1214.75 -2.28305C1213.77 -10.2594 1212.28 -18.1643 1210.28 -25.9481C1207.67 -35.6529 1204.35 -45.1518 1200.34 -54.3671L1197.17 -61.2121C1196.67 -62.3651 1196.04 -63.456 1195.47 -64.577L1193.73 -67.9191C1193.13 -69.0261 1192.6 -70.164 1191.96 -71.243L1190.06 -74.4981C1188.79 -76.6611 1187.58 -78.865 1186.18 -80.943C1180.91 -89.483 1174.87 -97.5071 1168.38 -105.134L1165.93 -107.977L1164.7 -109.399L1163.4 -110.762L1158.2 -116.196C1156.41 -117.949 1154.56 -119.65 1152.74 -121.376C1150.94 -123.138 1148.99 -124.723 1147.07 -126.352C1143.3 -129.682 1139.2 -132.627 1135.19 -135.669L1128.93 -139.918L1127.37 -140.978C1126.84 -141.328 1126.29 -141.638 1125.76 -141.97L1122.52 -143.932L1119.29 -145.892C1118.75 -146.226 1118.21 -146.538 1117.65 -146.828L1115.98 -147.726C1113.76 -148.917 1111.55 -150.132 1109.32 -151.304C1104.77 -153.455 1100.28 -155.74 1095.59 -157.588C1090.99 -159.639 1086.21 -161.219 1081.47 -162.932L1074.24 -165.126L1072.44 -165.674C1071.83 -165.847 1071.22 -165.984 1070.61 -166.141L1066.94 -167.054L1063.28 -167.966C1062.05 -168.267 1060.81 -168.468 1059.58 -168.724L1055.87 -169.454L1054.02 -169.818L1053.09 -169.998L1052.16 -170.135L1044.68 -171.228C1043.44 -171.438 1042.18 -171.518 1040.93 -171.65L1037.18 -172.016C1035.92 -172.128 1034.67 -172.283 1033.42 -172.356L1029.64 -172.531L1025.87 -172.701C1025.24 -172.721 1024.61 -172.771 1023.98 -172.769L1022.1 -172.759L1014.54 -172.706L1007 -172.289C996.966 -171.537 986.994 -170.093 977.156 -167.968C967.356 -165.745 957.727 -162.826 948.343 -159.234L941.365 -156.397C939.069 -155.383 936.805 -154.297 934.522 -153.25C932.222 -152.242 930.028 -151.013 927.795 -149.864L924.458 -148.117C923.344 -147.537 922.282 -146.863 921.191 -146.24L917.935 -144.34C916.855 -143.697 915.743 -143.107 914.701 -142.402L908.349 -138.329C907.812 -137.999 907.293 -137.643 906.784 -137.274L905.244 -136.184L902.158 -134.007L900.614 -132.918C900.096 -132.56 899.585 -132.192 899.095 -131.796L896.115 -129.473C892.078 -126.451 888.328 -123.076 884.533 -119.759L879.085 -114.516C878.635 -114.075 878.173 -113.646 877.735 -113.194L876.445 -111.812L873.875 -109.042C867.091 -101.601 860.901 -93.6431 855.54 -85.1661C854.857 -84.1151 854.154 -83.0781 853.489 -82.0171L851.585 -78.775L849.68 -75.5351C849.042 -74.4581 848.396 -73.3851 847.836 -72.2631C846.666 -70.0481 845.498 -67.8311 844.328 -65.6141C843.715 -64.5201 843.221 -63.366 842.677 -62.236L841.067 -58.8361L839.447 -55.4381L837.99 -51.965L836.53 -48.4911C836.051 -47.3311 835.523 -46.188 835.119 -44.997L832.527 -37.912C832.067 -36.739 831.73 -35.5271 831.347 -34.3281L830.227 -30.7241C827.348 -21.0881 825.015 -11.2481 823.8 -1.26807C823.39 1.21193 823.213 3.71993 822.974 6.21893C822.746 8.71893 822.475 11.2159 822.42 13.7279C822.328 16.2359 822.174 18.7429 822.136 21.2509L822.188 28.7789C822.479 38.8089 792.703 166.851 794.39 176.744C796.182 186.619 954.46 -58.4661 957.646 -48.9621L835.195 94.8879L838.045 101.844L838.759 103.582C839.007 104.157 839.285 104.72 839.546 105.288L842.728 112.098C843.288 113.218 843.888 114.319 844.467 115.43L846.219 118.754C846.799 119.864 847.379 120.974 848.037 122.04L851.867 128.499C854.607 132.684 857.287 136.912 860.327 140.887L862.547 143.908C863.273 144.926 864.106 145.863 864.88 146.843L867.243 149.754L868.423 151.21C868.812 151.7 869.212 152.18 869.637 152.638L874.637 158.229C875.448 159.18 876.352 160.047 877.224 160.944L879.854 163.619C880.736 164.505 881.594 165.416 882.495 166.282L885.254 168.824L888.014 171.364L889.394 172.634L890.834 173.833L896.6 178.629C898.577 180.159 900.593 181.637 902.586 183.143C904.555 184.686 906.654 186.046 908.723 187.446C910.806 188.826 912.831 190.296 915.001 191.539L921.417 195.415V195.414Z" fill="#10C4F8"/>
<path fill-rule="evenodd" clip-rule="evenodd" d="M1216.8 163.535C1217.43 163.109 1218.1 162.73 1218.81 162.419C1219.54 162.129 1220.31 161.929 1221.1 161.89C1221.2 161.884 1221.21 162.232 1221.11 162.245C1220.36 162.32 1219.61 162.435 1218.89 162.66C1218.18 162.903 1217.5 163.236 1216.93 163.726C1216.06 164.493 1215.57 165.526 1215.22 166.521C1215.84 165.499 1216.72 164.656 1217.76 164.07C1218.81 163.485 1219.98 163.177 1221.18 163.177C1222.25 163.177 1223.3 163.421 1224.26 163.889C1225.21 164.358 1226.05 165.038 1226.71 165.88C1227.36 166.721 1227.81 167.7 1228.03 168.743C1228.25 169.786 1228.23 170.866 1227.96 171.899C1227.7 172.932 1227.21 173.891 1226.52 174.704C1225.83 175.517 1224.96 176.161 1223.99 176.589C1223.01 177.016 1221.95 177.215 1220.89 177.171C1219.82 177.126 1218.78 176.839 1217.84 176.331C1218.26 176.703 1218.73 177.019 1219.26 177.213C1220.59 177.698 1222.06 177.793 1223.53 177.541C1225.03 177.26 1226.33 176.381 1227.53 175.359C1228.13 174.833 1228.58 174.144 1228.92 173.413C1229.25 172.67 1229.47 171.888 1229.68 171.087C1229.7 170.995 1229.97 171.022 1229.96 171.123C1229.81 171.955 1229.68 172.789 1229.43 173.621C1229.17 174.439 1228.8 175.252 1228.24 175.919C1227.12 177.227 1225.73 178.445 1224 178.915C1222.31 179.357 1220.53 179.301 1218.87 178.753C1217.24 178.226 1215.82 177.217 1214.75 175.955C1213.68 174.715 1212.9 173.175 1212.68 171.535C1212.44 169.889 1212.91 168.26 1213.55 166.82C1214.23 165.337 1215.57 164.366 1216.8 163.535ZM1229.9 168.692C1229.72 168.067 1229.78 167.39 1229.78 166.644C1229.78 165.913 1229.68 165.12 1229.26 164.524C1228.91 164.023 1228.31 163.677 1227.76 163.366C1227.2 163.05 1226.69 162.763 1226.38 162.204C1226.27 162.027 1227.16 161.004 1227.32 161.168C1228.27 162.19 1229.08 163.343 1229.71 164.592C1230.36 165.868 1230.36 167.281 1230.61 168.551C1230.61 168.579 1229.91 168.716 1229.9 168.691L1229.9 168.692ZM1236.22 165.99C1237.07 169.1 1236.71 172.346 1235.58 175.26C1234.49 178.164 1232.7 180.913 1230.07 182.627C1227.44 184.347 1224.23 184.853 1221.32 184.709C1219.85 184.636 1218.4 184.353 1217.02 183.867C1215.65 183.371 1214.37 182.669 1213.22 181.785C1210.96 180.011 1209.54 177.502 1208.65 174.952C1208.18 173.671 1208 172.299 1208 170.969C1207.99 169.637 1208.19 168.323 1208.51 167.037C1208.82 165.732 1209.2 164.417 1209.79 163.166C1210.37 161.919 1211.16 160.715 1212.24 159.809C1214.37 157.971 1217.1 156.916 1219.88 156.551C1219.96 156.543 1220.01 156.985 1219.93 156.991C1217.93 157.229 1215.67 157.427 1213.92 158.681C1212.18 159.928 1211.11 161.791 1210.2 163.545C1209.27 165.349 1209.28 167.424 1209.23 169.25C1209.13 171.707 1209.69 174.238 1210.97 176.354C1211.6 177.412 1212.21 178.511 1213.02 179.528C1213.83 180.54 1214.82 181.488 1216.04 182.076C1217.26 182.658 1218.58 182.996 1219.92 183.144C1221.26 183.274 1222.6 183.217 1223.95 183.039C1225.31 182.851 1226.61 182.308 1227.79 181.609C1228.97 180.913 1230.02 180.034 1231.04 179.113C1232.05 178.198 1233.04 177.19 1233.84 175.982C1234.63 174.786 1235.27 173.402 1235.47 171.932C1235.9 169.017 1235.26 165.971 1233.91 163.32C1232.65 160.867 1230.69 158.845 1228.27 157.509C1227.23 156.941 1225.98 156.711 1224.8 156.594C1223.6 156.449 1222.48 156.418 1221.37 156.024C1221 155.898 1221.22 154.916 1221.62 155.006C1223.14 155.331 1224.64 155.671 1226.12 156.136C1227.6 156.596 1229.05 157.238 1230.31 158.14C1231.65 159.09 1232.89 160.193 1233.92 161.507C1234.95 162.82 1235.77 164.343 1236.22 165.99H1236.22Z" fill="#00C7FA"/>
<path fill-rule="evenodd" clip-rule="evenodd" d="M1288.66 397.044C1289.06 396.774 1289.48 396.533 1289.93 396.335C1290.39 396.151 1290.88 396.025 1291.38 396C1291.45 395.996 1291.45 396.217 1291.39 396.225C1290.91 396.273 1290.44 396.346 1289.98 396.488C1289.53 396.643 1289.1 396.854 1288.74 397.166C1288.18 397.653 1287.87 398.309 1287.65 398.941C1288.05 398.293 1288.6 397.757 1289.27 397.385C1289.93 397.013 1290.67 396.817 1291.43 396.817C1293.89 396.817 1295.87 398.807 1295.87 401.263C1295.87 402.033 1295.67 402.789 1295.29 403.458C1294.91 404.127 1294.37 404.686 1293.71 405.08C1293.04 405.474 1292.29 405.69 1291.52 405.706C1290.75 405.722 1289.99 405.537 1289.32 405.171C1289.58 405.408 1289.88 405.608 1290.22 405.731C1291.06 406.04 1291.99 406.1 1292.93 405.94C1293.87 405.761 1294.7 405.204 1295.46 404.554C1295.84 404.221 1296.13 403.783 1296.34 403.319C1296.55 402.847 1296.69 402.35 1296.82 401.841C1296.84 401.782 1297.01 401.799 1297 401.864C1296.9 402.392 1296.82 402.922 1296.67 403.45C1296.5 403.97 1296.27 404.487 1295.91 404.91C1295.2 405.741 1294.32 406.515 1293.22 406.813C1292.15 407.094 1291.02 407.058 1289.97 406.71C1288.95 406.371 1288.04 405.756 1287.35 404.933C1286.67 404.145 1286.18 403.167 1286.04 402.125C1285.89 401.08 1286.19 400.045 1286.6 399.131C1287.02 398.189 1287.87 397.572 1288.66 397.044ZM1297.5 399.998C1297.37 399.584 1297.41 399.135 1297.42 398.641C1297.41 398.156 1297.35 397.631 1297.05 397.236C1296.79 396.904 1296.37 396.675 1295.98 396.468C1295.58 396.259 1295.23 396.068 1295.01 395.698C1294.93 395.581 1295.55 394.903 1295.67 395.012C1296.34 395.683 1296.91 396.447 1297.36 397.281C1297.83 398.127 1297.82 399.063 1298 399.905C1298 399.923 1297.5 400.014 1297.5 399.998H1297.5ZM1301.69 398.393C1302.25 400.485 1302.01 402.668 1301.27 404.629C1300.54 406.582 1299.36 408.431 1297.62 409.584C1295.88 410.742 1293.75 411.081 1291.82 410.984C1290.85 410.935 1289.89 410.744 1288.97 410.418C1288.07 410.084 1287.22 409.611 1286.45 409.018C1284.96 407.824 1284.02 406.136 1283.43 404.421C1283.12 403.559 1283 402.636 1283 401.741C1282.99 400.846 1283.13 399.961 1283.34 399.097C1283.54 398.219 1283.79 397.335 1284.18 396.493C1284.57 395.654 1285.09 394.844 1285.81 394.235C1287.22 392.998 1289.03 392.289 1290.87 392.043C1290.92 392.038 1290.95 392.335 1290.9 392.34C1289.58 392.5 1288.08 392.632 1286.92 393.476C1285.77 394.315 1285.06 395.569 1284.46 396.748C1283.84 397.961 1283.85 399.358 1283.81 400.585C1283.75 402.238 1284.12 403.941 1284.97 405.365C1285.38 406.075 1285.79 406.815 1286.33 407.499C1286.86 408.18 1287.52 408.818 1288.32 409.213C1289.13 409.605 1290.01 409.833 1290.89 409.932C1291.78 410.02 1292.67 409.981 1293.56 409.861C1294.46 409.735 1295.32 409.369 1296.1 408.9C1296.89 408.43 1297.58 407.84 1298.26 407.22C1298.92 406.605 1299.58 405.927 1300.11 405.114C1300.64 404.309 1301.06 403.378 1301.19 402.39C1301.48 400.429 1301.05 398.38 1300.16 396.597C1299.33 394.953 1298.03 393.592 1296.42 392.687C1295.73 392.306 1294.91 392.151 1294.12 392.072C1293.33 391.975 1292.59 391.954 1291.85 391.689C1291.61 391.604 1291.76 390.943 1292.02 391.004C1293.03 391.223 1294.02 391.451 1295 391.764C1295.98 392.074 1296.94 392.505 1297.78 393.112C1298.66 393.752 1299.48 394.493 1300.17 395.377C1300.85 396.26 1301.39 397.285 1301.69 398.393V398.393Z" fill="white"/>
<path fill-rule="evenodd" clip-rule="evenodd" d="M923.583 262.724C923.718 263.413 923.8 264.115 923.806 264.836C923.792 265.554 923.683 266.285 923.43 266.969C923.4 267.059 923.102 266.936 923.126 266.85C923.334 266.183 923.504 265.508 923.573 264.816C923.623 264.125 923.586 263.422 923.373 262.767C923.037 261.744 922.333 260.958 921.613 260.302C922.256 261.2 922.658 262.248 922.78 263.346C922.902 264.445 922.739 265.556 922.308 266.573C921.976 267.354 921.493 268.062 920.887 268.656C920.282 269.251 919.565 269.72 918.778 270.037C917.991 270.355 917.149 270.514 916.3 270.506C915.452 270.498 914.613 270.323 913.832 269.991C912.801 269.554 911.902 268.856 911.222 267.967C910.542 267.078 910.105 266.027 909.953 264.918C909.801 263.809 909.94 262.68 910.356 261.641C910.771 260.601 911.45 259.688 912.325 258.99C911.851 259.202 911.423 259.504 911.063 259.878C910.173 260.828 909.562 262.044 909.245 263.386C908.945 264.756 909.224 266.176 909.661 267.566C909.889 268.268 910.314 268.897 910.811 269.454C911.324 270.002 911.911 270.469 912.517 270.934C912.588 270.987 912.467 271.208 912.387 271.157C911.734 270.73 911.071 270.318 910.453 269.809C909.851 269.291 909.292 268.685 908.928 267.964C908.218 266.544 907.683 264.926 907.907 263.288C908.14 261.693 908.831 260.199 909.895 258.988C910.931 257.794 912.301 256.951 913.76 256.498C915.202 256.034 916.793 255.928 918.266 256.334C919.752 256.724 920.966 257.715 921.96 258.78C922.978 259.886 923.32 261.376 923.583 262.724V262.724ZM914.261 272.357C914.861 272.427 915.417 272.727 916.053 272.999C916.68 273.257 917.391 273.466 918.056 273.315C918.615 273.188 919.131 272.793 919.6 272.427C920.076 272.056 920.507 271.722 921.1 271.652C921.29 271.622 921.84 272.76 921.64 272.84C920.417 273.299 919.135 273.582 917.832 273.681C916.502 273.785 915.296 273.269 914.12 273.026C914.094 273.02 914.238 272.354 914.261 272.356V272.357ZM914.757 278.448C911.749 278.039 909.069 276.53 906.955 274.483C904.841 272.467 903.115 269.907 902.598 266.996C902.071 264.088 902.815 261.12 904.009 258.652C904.611 257.407 905.391 256.255 906.322 255.232C907.254 254.231 908.335 253.379 909.525 252.706C911.893 251.402 914.591 251.094 917.127 251.266C918.409 251.332 919.667 251.676 920.819 252.168C921.977 252.648 923.042 253.308 924.041 254.055C925.057 254.805 926.058 255.615 926.926 256.588C927.791 257.554 928.545 258.68 928.934 259.948C929.743 262.472 929.654 265.225 928.949 267.765C928.927 267.835 928.526 267.714 928.548 267.647C929.078 265.827 929.736 263.799 929.294 261.817C928.854 259.848 927.632 258.234 926.445 256.807C925.225 255.332 923.421 254.582 921.858 253.863C919.765 252.872 917.363 252.429 915.058 252.758C913.91 252.914 912.733 253.038 911.552 253.37C910.379 253.694 909.191 254.209 908.234 255.046C907.283 255.884 906.5 256.91 905.881 258.014C905.276 259.124 904.834 260.306 904.489 261.546C904.154 262.79 904.146 264.116 904.319 265.392C904.487 266.676 904.864 267.906 905.289 269.127C905.71 270.338 906.218 271.572 906.972 272.707C907.716 273.836 908.682 274.896 909.882 275.609C912.252 277.054 915.127 277.622 917.922 277.429C920.512 277.236 922.987 276.28 925.033 274.68C925.908 273.988 926.566 272.993 927.104 272.007C927.669 271.026 928.11 270.062 928.859 269.245C929.102 268.979 929.873 269.528 929.649 269.841C928.809 271.037 927.961 272.211 927.014 273.324C926.07 274.435 924.98 275.459 923.735 276.217C922.421 277.023 921.01 277.69 919.489 278.105C917.973 278.512 916.352 278.662 914.757 278.448V278.448Z" fill="#12C3F7"/>
<path fill-rule="evenodd" clip-rule="evenodd" d="M1373.11 547.256C1373.2 547.762 1373.25 548.279 1373.25 548.81C1373.24 549.347 1373.14 549.879 1372.96 550.385C1372.94 550.451 1372.72 550.364 1372.74 550.3C1372.9 549.806 1373.03 549.308 1373.08 548.797C1373.12 548.287 1373.11 547.77 1372.96 547.29C1372.73 546.54 1372.23 545.967 1371.72 545.49C1372.17 546.16 1372.45 546.934 1372.53 547.741C1372.61 548.547 1372.48 549.36 1372.16 550.104C1371.13 552.536 1368.39 553.7 1366.04 552.703C1363.69 551.706 1362.62 548.926 1363.65 546.493C1363.96 545.761 1364.44 545.116 1365.06 544.612C1364.71 544.774 1364.4 545 1364.14 545.278C1363.49 545.987 1363.04 546.888 1362.8 547.88C1362.58 548.892 1362.76 549.936 1363.06 550.955C1363.22 551.47 1363.52 551.93 1363.87 552.335C1364.23 552.734 1364.65 553.073 1365.08 553.409C1365.13 553.448 1365.04 553.612 1364.99 553.575C1364.52 553.266 1364.05 552.97 1363.61 552.6C1363.18 552.224 1362.79 551.783 1362.53 551.256C1362.04 550.216 1361.67 549.029 1361.84 547.82C1362.03 546.642 1362.54 545.538 1363.31 544.634C1364.06 543.766 1365.03 543.12 1366.11 542.764C1367.15 542.407 1368.3 542.314 1369.35 542.599C1370.41 542.873 1371.28 543.591 1371.98 544.366C1372.7 545.171 1372.93 546.266 1373.11 547.256H1373.11ZM1366.32 554.441C1366.75 554.488 1367.15 554.703 1367.6 554.897C1368.05 555.081 1368.56 555.228 1369.04 555.111C1369.44 555.012 1369.82 554.716 1370.16 554.441C1370.5 554.164 1370.81 553.914 1371.24 553.857C1371.38 553.833 1371.76 554.667 1371.62 554.727C1370.74 555.076 1369.82 555.297 1368.87 555.383C1367.92 555.473 1367.06 555.103 1366.21 554.935C1366.2 554.931 1366.31 554.439 1366.32 554.441V554.441ZM1366.62 558.924C1364.46 558.651 1362.55 557.565 1361.05 556.077C1359.55 554.612 1358.34 552.742 1357.99 550.603C1357.64 548.465 1358.21 546.271 1359.09 544.442C1359.53 543.52 1360.1 542.665 1360.78 541.901C1361.46 541.158 1362.24 540.521 1363.11 540.01C1364.82 539.026 1366.76 538.774 1368.58 538.876C1369.5 538.913 1370.4 539.154 1371.22 539.506C1372.05 539.848 1372.81 540.325 1373.52 540.865C1374.24 541.407 1374.95 541.995 1375.57 542.704C1376.18 543.407 1376.71 544.23 1376.98 545.159C1377.54 547.012 1377.45 549.041 1376.92 550.919C1376.9 550.97 1376.61 550.885 1376.63 550.836C1377.03 549.489 1377.52 547.989 1377.22 546.534C1376.92 545.087 1376.06 543.91 1375.22 542.869C1374.36 541.795 1373.07 541.259 1371.95 540.745C1370.46 540.034 1368.74 539.731 1367.08 539.995C1366.26 540.121 1365.41 540.223 1364.56 540.479C1363.71 540.729 1362.85 541.119 1362.16 541.745C1361.47 542.372 1360.89 543.135 1360.44 543.955C1360 544.786 1359.65 545.663 1359.41 546.57C1359.15 547.49 1359.13 548.466 1359.25 549.404C1359.35 550.349 1359.61 551.252 1359.91 552.147C1360.2 553.035 1360.55 553.94 1361.08 554.768C1361.61 555.593 1362.29 556.365 1363.15 556.878C1364.84 557.92 1366.89 558.312 1368.9 558.143C1370.76 557.982 1372.55 557.247 1374.04 556.05C1374.67 555.532 1375.15 554.793 1375.55 554.061C1375.97 553.333 1376.29 552.618 1376.84 552.01C1377.01 551.811 1377.56 552.208 1377.4 552.441C1376.78 553.331 1376.16 554.204 1375.47 555.032C1374.79 555.86 1373.99 556.625 1373.09 557.195C1372.14 557.801 1371.12 558.306 1370.02 558.626C1368.93 558.94 1367.76 559.066 1366.62 558.924V558.924Z" fill="#55FBDC"/>
<path opacity="0.803" fill-rule="evenodd" clip-rule="evenodd" d="M1289.17 166.854C1289.5 166.629 1289.85 166.434 1290.22 166.274C1290.59 166.124 1290.99 166.02 1291.4 166C1291.46 165.996 1291.46 166.177 1291.41 166.184C1291.02 166.223 1290.63 166.284 1290.26 166.4C1289.89 166.526 1289.53 166.699 1289.24 166.954C1288.79 167.352 1288.53 167.89 1288.35 168.406C1288.67 167.875 1289.13 167.437 1289.67 167.132C1290.21 166.828 1290.82 166.668 1291.45 166.668C1291.92 166.668 1292.4 166.762 1292.84 166.945C1293.28 167.128 1293.68 167.396 1294.02 167.734C1294.35 168.072 1294.62 168.473 1294.8 168.914C1294.99 169.356 1295.08 169.828 1295.08 170.306C1295.08 170.936 1294.92 171.555 1294.6 172.102C1294.29 172.65 1293.85 173.108 1293.3 173.43C1292.76 173.752 1292.15 173.929 1291.52 173.942C1290.89 173.955 1290.27 173.804 1289.71 173.504C1289.93 173.697 1290.17 173.861 1290.45 173.962C1291.14 174.214 1291.9 174.264 1292.67 174.132C1293.44 173.987 1294.12 173.53 1294.74 172.999C1295.05 172.726 1295.28 172.368 1295.46 171.989C1295.63 171.602 1295.75 171.196 1295.86 170.779C1295.87 170.731 1296.01 170.745 1296 170.798C1295.92 171.23 1295.85 171.663 1295.73 172.096C1295.59 172.521 1295.4 172.944 1295.11 173.29C1294.53 173.97 1293.81 174.603 1292.91 174.847C1292.02 175.079 1291.09 175.044 1290.25 174.763C1289.41 174.486 1288.67 173.983 1288.11 173.309C1287.55 172.664 1287.15 171.864 1287.03 171.012C1286.91 170.156 1287.15 169.31 1287.49 168.562C1287.84 167.791 1288.53 167.286 1289.17 166.854V166.854ZM1295.66 168.999C1295.58 168.667 1295.61 168.309 1295.61 167.913C1295.61 167.525 1295.56 167.105 1295.36 166.789C1295.2 166.523 1294.91 166.339 1294.65 166.175C1294.39 166.007 1294.15 165.855 1294 165.559C1293.95 165.465 1294.37 164.922 1294.44 165.009C1294.9 165.56 1295.28 166.171 1295.58 166.825C1295.88 167.501 1295.88 168.25 1296 168.924C1296 168.939 1295.67 169.011 1295.66 168.999V168.999ZM1299.76 167.914C1300.2 169.588 1300.01 171.334 1299.42 172.904C1298.85 174.465 1297.91 175.944 1296.54 176.867C1295.17 177.793 1293.49 178.065 1291.96 177.987C1291.2 177.948 1290.44 177.795 1289.71 177.534C1289 177.266 1288.33 176.888 1287.73 176.414C1286.55 175.459 1285.8 174.109 1285.34 172.737C1285.1 172.047 1285 171.309 1285 170.593C1284.99 169.877 1285.1 169.17 1285.27 168.477C1285.43 167.775 1285.63 167.068 1285.93 166.394C1286.24 165.724 1286.65 165.075 1287.22 164.588C1288.33 163.598 1289.76 163.031 1291.21 162.835C1291.25 162.83 1291.28 163.068 1291.24 163.072C1290.19 163.199 1289.01 163.306 1288.09 163.981C1287.18 164.651 1286.62 165.655 1286.15 166.598C1285.66 167.569 1285.67 168.686 1285.64 169.668C1285.59 170.991 1285.88 172.353 1286.55 173.491C1286.88 174.061 1287.2 174.652 1287.63 175.199C1288.05 175.744 1288.57 176.254 1289.2 176.571C1289.84 176.884 1290.53 177.066 1291.23 177.145C1291.93 177.215 1292.63 177.185 1293.34 177.089C1294.05 176.988 1294.73 176.695 1295.34 176.319C1295.96 175.945 1296.51 175.472 1297.04 174.976C1297.57 174.484 1298.09 173.941 1298.51 173.291C1298.92 172.648 1299.26 171.903 1299.36 171.112C1299.59 169.543 1299.25 167.904 1298.55 166.477C1297.9 165.166 1296.87 164.078 1295.6 163.35C1295.05 163.044 1294.4 162.92 1293.78 162.858C1293.16 162.78 1292.57 162.763 1291.99 162.551C1291.8 162.483 1291.91 161.955 1292.12 162.003C1292.91 162.178 1293.7 162.361 1294.47 162.611C1295.25 162.859 1296.01 163.204 1296.67 163.69C1297.38 164.201 1298.01 164.811 1298.55 165.502C1299.11 166.22 1299.51 167.04 1299.76 167.914V167.914Z" fill="#55FBDC"/>
<path fill-rule="evenodd" clip-rule="evenodd" d="M968.926 443.491C970.677 450.464 972.8 457.492 975.228 463.846C975.904 465.801 976.663 467.64 977.419 469.362C964.667 451.846 954.081 432.766 946.096 412.632C944.096 407.23 941.973 401.889 940.348 396.396L939.048 392.309L938.4 390.268L938.307 389.922C938.193 388.444 938.032 386.181 937.753 383.294L937.45 380.032C937.343 378.872 937.201 377.649 937.16 376.339L936.72 367.816L936.596 365.49C936.566 364.702 936.579 363.893 936.567 363.08L936.531 358.069C936.518 356.369 936.503 354.626 936.488 352.852L936.665 348.236C940.881 382.198 952.021 414.56 968.926 443.491Z" fill="#692FDC"/>
<path fill-rule="evenodd" clip-rule="evenodd" d="M935.572 313.342C918.657 319.314 902.394 326.992 887.034 336.258C871.694 345.55 857.341 356.38 844.197 368.581C817.922 392.941 796.664 422.643 782.07 455.362" fill="#692FDC"/>
<path fill-rule="evenodd" clip-rule="evenodd" d="M771.191 379.589C772.459 377.391 773.741 374.967 775.279 372.492C779.009 366.33 783.593 359.579 788.684 352.831C772.329 382.774 762.011 416.152 759.017 451.067" fill="#12C3F7"/>
<path fill-rule="evenodd" clip-rule="evenodd" d="M1302.22 611.142C1299.28 617.954 1296.47 626.192 1294.72 635.051C1294.43 636.49 1294.14 637.932 1293.88 639.376C1293.23 611.205 1297.24 582.948 1305.66 556.079C1306.14 555.24 1306.7 554.234 1307.35 553.06C1307.95 551.926 1309.26 549.309 1311.08 545.691C1311.31 545.24 1311.55 544.772 1311.79 544.289L1312.61 542.826L1314.39 539.663C1315.66 537.466 1316.94 535.043 1318.48 532.568C1322.21 526.405 1326.8 519.654 1331.89 512.906C1315.53 542.849 1305.21 576.227 1302.22 611.142" fill="url(#paint0_linear)"/>
<path fill-rule="evenodd" clip-rule="evenodd" d="M913.374 -40.2651C907.302 -43.1281 901.082 -45.6151 894.746 -47.6211C893.161 -48.1161 891.556 -48.5371 889.966 -48.9971C889.167 -49.2181 888.375 -49.4561 887.576 -49.6621L885.162 -50.2181L882.754 -50.7721C881.95 -50.9491 881.154 -51.1621 880.342 -51.2891L875.502 -52.1531L874.262 -52.3731L873.012 -52.5331L870.513 -52.8531C868.847 -53.0671 867.183 -53.3051 865.506 -53.4031L860.483 -53.7961L855.447 -53.9441C854.608 -53.9611 853.768 -54.0101 852.929 -53.9981L850.411 -53.9451L847.892 -53.8921C847.052 -53.8671 846.212 -53.8751 845.375 -53.7971L840.348 -53.4371L839.091 -53.3431L837.839 -53.1911L835.338 -52.8861L832.835 -52.5791C831.998 -52.4931 831.176 -52.3081 830.346 -52.1771L825.378 -51.3101C822.103 -50.5511 818.798 -49.9031 815.576 -48.9261C812.315 -48.0891 809.146 -46.9521 805.951 -45.8931C804.376 -45.3001 802.814 -44.6741 801.246 -44.0651C799.666 -43.4821 798.139 -42.7721 796.605 -42.0811C793.505 -40.7621 790.537 -39.1731 787.537 -37.6501C784.622 -35.9741 781.658 -34.3761 778.861 -32.5081C775.989 -30.7541 773.291 -28.7441 770.544 -26.8081C767.906 -24.7281 765.213 -22.7131 762.714 -20.4641C761.442 -19.3661 760.155 -18.2851 758.959 -17.1041C757.746 -15.9441 756.515 -14.8001 755.317 -13.6241L751.834 -9.98413L750.963 -9.07413L750.135 -8.12413L748.481 -6.22413L746.828 -4.32413C746.281 -3.68613 745.78 -3.01213 745.253 -2.35813C744.222 -1.03313 743.15 0.26187 742.153 1.61187L739.221 5.71087C738.719 6.38487 738.265 7.09087 737.812 7.79887L736.445 9.91587L735.099 12.0029C734.671 12.7109 734.266 13.4329 733.848 14.1489C733.03 15.5889 732.164 17.0029 731.388 18.4679L729.117 22.8899C728.93 23.2599 728.732 23.6249 728.557 23.9999L728.042 25.1319L727.016 27.3979L725.992 29.6649C725.657 30.4229 725.375 31.2039 725.064 31.9719C724.463 33.5179 723.831 35.0519 723.259 36.6079L721.666 41.3219L721.27 42.4999C721.141 42.8929 721.039 43.2959 720.923 43.6939L720.245 46.0869C719.27 49.2599 718.621 52.5149 717.858 55.7399L716.977 60.6329C716.84 61.4499 716.667 62.2609 716.561 63.0829L716.246 65.5469L715.932 68.0109C715.829 68.8309 715.709 69.6509 715.662 70.4779L715.279 75.4269L715.187 76.6639L715.153 77.9039L715.084 80.3829C715.047 82.0349 714.957 83.6869 715.027 85.3389L715.131 90.2909C715.2 91.9389 715.349 93.5839 715.453 95.2299L715.626 97.6969L715.915 100.153C716.118 101.789 716.288 103.43 716.519 105.061C717.086 108.307 717.555 111.573 718.336 114.777C718.981 118.012 719.915 121.175 720.78 124.357C721.252 125.937 721.795 127.495 722.3 129.065C722.562 129.848 722.807 130.636 723.082 131.414L723.968 133.724L724.858 136.036C725.157 136.806 725.437 137.584 725.787 138.333L727.793 142.866C728.114 143.629 728.498 144.362 728.869 145.101L729.985 147.319L731.105 149.535C731.498 150.264 731.918 150.979 732.323 151.701C733.152 153.135 733.939 154.597 734.808 156.01L737.484 160.21C741.41 166.096 745.765 171.684 750.514 176.929C755.333 182.134 760.527 186.98 766.054 191.428L770.259 194.691L774.61 197.754L775.7 198.516L776.823 199.23L779.069 200.655L781.316 202.078L783.626 203.394L785.937 204.71L787.093 205.367L788.276 205.971L793.015 208.378C796.245 209.831 799.447 211.34 802.766 212.57C809.346 215.132 816.131 217.256 823.072 218.718C823.938 218.907 824.797 219.128 825.668 219.291L828.288 219.752L830.908 220.212L832.218 220.438L833.538 220.603L838.818 221.259C840.585 221.419 842.355 221.529 844.121 221.665C845.007 221.715 845.889 221.825 846.775 221.828L849.432 221.891L852.089 221.954C852.531 221.961 852.974 221.981 853.416 221.978L854.744 221.944L860.052 221.806C861.818 221.709 863.581 221.55 865.345 221.425C866.225 221.347 867.11 221.317 867.985 221.199L870.615 220.871L873.245 220.542C873.682 220.484 874.121 220.441 874.557 220.371L875.861 220.143L881.071 219.233L886.227 218.084C886.83 217.951 887.431 217.807 888.03 217.653C888.508 217.509 888.983 217.357 889.457 217.199C890.28 216.922 890.835 216.702 891.06 216.573C891.51 216.315 890.644 216.42 887.97 217.151L883.053 218.25C882.23 218.42 881.417 218.64 880.586 218.771L878.097 219.198L875.607 219.626L874.362 219.84L873.107 219.996C871.432 220.2 869.757 220.404 868.083 220.609C867.247 220.73 866.401 220.753 865.559 220.825L863.032 221.008L860.504 221.19L857.968 221.253C856.278 221.283 854.587 221.349 852.895 221.349L847.819 221.211C841.061 220.88 834.293 220.246 827.651 218.913C821.009 217.63 814.431 215.971 808.087 213.688C801.744 211.452 795.521 208.843 789.596 205.668C783.66 202.524 777.889 199.046 772.5 195.042C761.639 187.156 751.985 177.655 743.898 167.002C736.03 156.608 729.574 145.096 724.938 132.887C724.645 132.126 724.333 131.371 724.057 130.603L723.278 128.283L722.5 125.963C722.243 125.188 721.967 124.42 721.762 123.629L720.44 118.919C720.213 118.136 720.015 117.345 719.847 116.547L719.305 114.163L718.765 111.78C718.576 110.988 718.47 110.178 718.32 109.378L717.482 104.568L716.889 99.7249C716.799 98.9169 716.674 98.1129 716.614 97.3029L716.442 94.8729C715.879 88.3989 715.987 81.9039 716.359 75.4519L716.769 70.6189C716.822 69.8119 716.939 69.0119 717.051 68.2109L717.378 65.8099L717.706 63.4099C717.801 62.6069 717.99 61.8199 718.127 61.0239L719.025 56.2629L720.152 51.5509C720.349 50.7689 720.514 49.9779 720.736 49.2009L721.42 46.8779L722.103 44.5539C722.332 43.7799 722.546 43.0009 722.827 42.2429L724.421 37.6659C724.671 36.8979 724.978 36.1499 725.284 35.4019L726.192 33.1529L727.098 30.9039C727.404 30.1559 727.767 29.4319 728.098 28.6939C728.78 27.2269 729.44 25.7489 730.141 24.2899L732.382 19.9769C733.114 18.4869 734.004 17.0809 734.822 15.6369L736.073 13.4809C736.476 12.7529 736.961 12.0759 737.4 11.3709C738.307 9.97787 739.189 8.56687 740.113 7.18487L743.01 3.11887L743.734 2.10187L744.504 1.11987L746.047 -0.844131L747.59 -2.81013C748.111 -3.46013 748.673 -4.07513 749.212 -4.71013C750.312 -5.96113 751.369 -7.25013 752.502 -8.47313L755.947 -12.0981C760.655 -16.8191 765.641 -21.2741 770.961 -25.3001C776.31 -29.2841 781.905 -32.9321 787.747 -36.1301C793.622 -39.2601 799.687 -42.0271 805.927 -44.3371C812.197 -46.5631 818.594 -48.4311 825.109 -49.7871C826.735 -50.1371 828.382 -50.3801 830.018 -50.6821L832.475 -51.1131L834.95 -51.4231C836.602 -51.6151 838.248 -51.8631 839.904 -52.0101L844.881 -52.3781C851.521 -52.7011 858.194 -52.7511 864.827 -52.1121C871.71 -51.5051 878.587 -50.4681 885.31 -48.7371C886.152 -48.5271 887.004 -48.3571 887.837 -48.1131L890.337 -47.3851C891.997 -46.8801 893.684 -46.4591 895.314 -45.8511L900.236 -44.1381L905.073 -42.1851C911.469 -39.4571 917.687 -36.2971 923.633 -32.6651C929.552 -28.984 935.21 -24.8968 940.564 -20.4331L944.521 -16.9981C945.806 -15.8161 947.054 -14.5961 948.324 -13.3981C949.615 -12.2231 950.78 -10.9211 951.998 -9.67213L953.808 -7.78413C954.401 -7.14613 954.959 -6.47613 955.538 -5.82413L957.256 -3.85513C957.832 -3.20113 958.41 -2.54913 958.939 -1.85713L962.188 2.23287C964.232 5.04787 966.315 7.83787 968.156 10.7869C971.916 16.6249 975.317 22.6999 978.093 29.0399C978.85 30.5969 979.467 32.2129 980.115 33.8149C980.755 35.4189 981.432 37.0089 981.961 38.6519C982.517 40.2849 983.103 41.9069 983.632 43.5469L985.069 48.5069C985.45 49.7319 985.694 50.8649 985.964 51.8529C986.226 52.8429 986.469 53.7009 986.686 54.4179C986.906 55.1359 987.099 55.7119 987.262 56.1409C987.408 56.5729 987.525 56.8559 987.618 56.9789C987.793 57.2289 987.888 56.8349 987.778 55.7469C987.646 54.6629 987.326 52.8799 986.773 50.3339C983.727 37.4979 978.78 25.1893 972.095 13.8159C971.292 12.3399 970.353 10.9439 969.453 9.51987C968.542 8.10387 967.665 6.66287 966.661 5.30487C965.681 3.93087 964.714 2.54487 963.721 1.17787L960.587 -2.81413L959.803 -3.81313L958.975 -4.77513L957.313 -6.69513L955.65 -8.61513C955.09 -9.24913 954.488 -9.84713 953.909 -10.4651C952.731 -11.6811 951.594 -12.9371 950.382 -14.1171L946.71 -17.6181C941.717 -22.1521 936.439 -26.3881 930.86 -30.1871C925.25 -33.9361 919.412 -37.3231 913.375 -40.2661" fill="url(#paint1_linear)"/>
<path fill-rule="evenodd" clip-rule="evenodd" d="M865.24 243.754L864.896 239.044C864.741 237.48 864.396 235.935 864.137 234.387C863.989 233.615 863.871 232.838 863.691 232.075L863.055 229.805L862.405 227.543L862.076 226.415L861.656 225.316L859.933 220.946C858.551 218.142 857.233 215.302 855.494 212.704C852.188 207.409 848.457 202.297 843.847 197.955C843.275 197.411 842.749 196.81 842.131 196.317L840.297 194.808C839.06 193.816 837.85 192.776 836.485 191.959C835.145 191.107 833.813 190.23 832.42 189.467C830.992 188.767 829.547 188.097 828.09 187.467C827.33 187.138 827.407 187.337 828.176 187.704C829.45 188.314 830.708 188.95 831.949 189.605C833.19 190.261 834.322 191.106 835.489 191.871L837.211 193.061C837.786 193.451 838.294 193.937 838.834 194.374L841.985 197.086C842.966 198.063 843.915 199.069 844.87 200.059C845.342 200.559 845.83 201.042 846.285 201.555L847.588 203.155C848.442 204.23 849.35 205.255 850.165 206.355L852.549 209.706C855.579 214.202 858.274 218.993 860.072 224.154C861.125 226.68 861.708 229.357 862.412 231.994C862.725 233.32 862.876 234.679 863.1 236.024C863.304 237.37 863.537 238.714 863.554 240.077L863.732 244.29C863.749 245.693 863.602 247.096 863.532 248.496L863.388 250.596C863.351 251.296 863.188 251.986 863.09 252.679L862.385 256.829C862.061 258.192 861.668 259.541 861.303 260.894L860.733 262.917L859.991 264.883C859.479 266.187 859.025 267.515 858.452 268.79L856.596 272.555C853.921 277.446 850.897 282.226 847.04 286.322C846.571 286.844 846.121 287.386 845.633 287.89L844.104 289.341C843.066 290.287 842.088 291.307 840.979 292.172L837.623 294.73C837.071 295.17 836.479 295.547 835.873 295.905L834.068 296.997C831.708 298.532 829.075 299.572 826.536 300.748C825.216 301.222 823.883 301.665 822.556 302.109C821.888 302.32 821.234 302.571 820.556 302.742L818.511 303.215C813.088 304.626 807.482 304.948 801.948 304.942L797.791 304.716L796.752 304.657C796.407 304.621 796.064 304.56 795.719 304.512L793.657 304.204C790.887 303.889 788.202 303.127 785.502 302.441C784.157 302.078 782.867 301.539 781.55 301.086L779.587 300.368C778.94 300.108 778.322 299.786 777.689 299.495C776.434 298.891 775.169 298.305 773.933 297.665L770.366 295.495C765.741 292.425 761.361 288.909 757.726 284.689L756.322 283.147L755.055 281.488C754.228 280.37 753.347 279.288 752.58 278.128C751.12 275.758 749.593 273.42 748.468 270.86C747.161 268.387 746.328 265.708 745.409 263.076C745.01 261.74 744.729 260.369 744.397 259.017L743.927 256.982L743.64 254.914C743.462 253.535 743.264 252.158 743.116 250.78L742.966 246.63C742.95 245.938 742.896 245.247 742.916 244.557L743.024 242.487C743.11 241.108 743.139 239.725 743.268 238.351C743.914 232.233 745.4 226.233 747.684 220.521L749.589 216.304C750.299 214.938 751.099 213.615 751.865 212.274C752.595 210.904 753.551 209.686 754.442 208.42L755.808 206.54C756.268 205.917 756.812 205.362 757.315 204.772C758.197 203.78 759.079 202.778 759.995 201.806L762.949 199.088C763.453 198.648 763.925 198.168 764.457 197.759L766.057 196.539C767.135 195.743 768.168 194.881 769.283 194.143C771.553 192.725 773.744 191.183 776.124 189.999C777.301 189.389 778.428 188.671 779.63 188.129L783.204 186.45C784.02 186.057 783.402 185.765 782.564 186.15C781.394 186.685 780.218 187.201 779.034 187.702C777.874 188.252 776.739 188.87 775.579 189.434C773.221 190.499 771.05 191.92 768.779 193.197C764.427 196.019 760.135 199.15 756.663 203.074C754.743 205.014 753.186 207.268 751.585 209.475C750.796 210.587 750.163 211.806 749.46 212.975C748.776 214.156 748.076 215.326 747.548 216.589L745.868 220.317C745.358 221.578 744.958 222.884 744.506 224.165L743.852 226.095C743.635 226.736 743.512 227.407 743.34 228.062L742.378 232.008C742.099 233.393 741.928 234.798 741.703 236.192L741.388 238.286C741.308 238.986 741.291 239.691 741.24 240.394L741 244.615C741.012 246.023 741.086 247.432 741.135 248.842L741.225 250.958C741.29 251.66 741.403 252.359 741.492 253.061L742.092 257.268L743.096 261.405C743.277 262.092 743.426 262.789 743.641 263.465L744.353 265.476C746.124 270.892 748.959 275.906 752.205 280.544L754.785 283.929C755.693 285.017 756.683 286.036 757.635 287.085L759.085 288.637L760.655 290.067C761.715 291.005 762.728 291.997 763.835 292.878C766.096 294.588 768.319 296.356 770.793 297.759C773.161 299.332 775.763 300.49 778.313 301.741C779.611 302.311 780.96 302.771 782.286 303.279L784.288 304.019C784.968 304.219 785.658 304.396 786.343 304.583C787.718 304.945 789.093 305.327 790.476 305.653L794.689 306.338C795.393 306.436 796.093 306.586 796.801 306.638L798.926 306.778C800.343 306.854 801.76 306.983 803.178 307L807.439 306.857C808.149 306.815 808.863 306.835 809.569 306.737L811.689 306.459C817.37 305.864 822.914 304.189 828.209 302.004L832.082 300.191C833.367 299.573 834.56 298.785 835.802 298.078L837.642 296.981C838.249 296.606 838.808 296.161 839.393 295.752C840.55 294.912 841.711 294.076 842.85 293.212C844.977 291.307 847.227 289.512 849.11 287.342L850.57 285.765C851.062 285.243 851.544 284.712 851.966 284.131L854.578 280.709C855.029 280.149 855.398 279.532 855.776 278.921L856.901 277.081L858.006 275.227C858.381 274.614 858.648 273.941 858.97 273.298L860.782 269.381C861.278 268.032 861.742 266.671 862.207 265.311C862.43 264.628 862.684 263.956 862.874 263.265L863.376 261.171C863.69 259.772 864.064 258.387 864.303 256.979C864.661 254.143 865.179 251.329 865.184 248.482L865.267 246.116L865.3 244.934C865.3 244.541 865.26 244.147 865.24 243.754" fill="#10C4F8"/>
</g>
<defs>
<linearGradient id="paint0_linear" x1="1282.72" y1="582.003" x2="1342.44" y2="570.395" gradientUnits="userSpaceOnUse">
<stop stop-color="#00C7FA"/>
<stop offset="1" stop-color="#00C7FA" stop-opacity="0.24"/>
</linearGradient>
<linearGradient id="paint1_linear" x1="851.413" y1="-54" x2="897.061" y2="213.19" gradientUnits="userSpaceOnUse">
<stop stop-color="white"/>
<stop offset="1" stop-color="#55FBDC" stop-opacity="0.32"/>
</linearGradient>
<clipPath id="clip0">
<rect width="1440" height="640" fill="white"/>
</clipPath>
</defs>
</svg>
