<svg width="32" height="32" viewBox="0 0 32 32" fill="none" xmlns="http://www.w3.org/2000/svg">
<path d="M15.9363 22.4381C17.7212 22.4381 18.6136 21.2907 23.2032 17.0836L23.3307 28.9401C23.3307 30.5975 24.7969 31.9999 26.518 31.9999C28.0478 31.9999 29.7052 30.7887 29.7052 28.9401V13.2589C29.7052 13.2589 27.6016 13.7688 25.8805 11.729C22.5658 14.98 19.506 11.984 19.506 11.984L16 15.1075L12.6853 12.239C10.5817 13.7051 8.47813 13.7051 6.50203 11.984C5.22713 13.0677 4.12016 13.4315 2.29486 13.2589V28.9401C2.29486 30.5975 3.761 31.9999 5.48211 31.9999C7.01199 31.9999 8.66936 30.7887 8.66936 28.9401V17.0836C13.259 21.2907 14.1514 22.4381 15.9363 22.4381Z" fill="#6736DD"/>
<path d="M0 8.66403L4.33466 3.95215H28.0478L32 8.7277C31.1713 14.2035 25.6255 11.1472 25.8167 8.66403C25.498 12.8027 19.9522 13.2484 19.3785 8.66403C19.3785 12.8027 12.9402 13.1847 12.9402 8.66403C12.9402 12.9301 6.43825 13.0574 6.43825 8.66403C6.43825 12.9301 0 13.2484 0 8.66403Z" fill="#12C3F7"/>
<path d="M4.33472 1.01992C4.33472 0.456633 4.79135 0 5.35464 0H27.0279C27.5912 0 28.0479 0.456633 28.0479 1.01992V2.42231H4.33472V1.01992Z" fill="#6736DD"/>
</svg>
