<svg width="16" height="14" viewBox="0 0 16 14" fill="none" xmlns="http://www.w3.org/2000/svg">
<path d="M16 2.03941C15.4111 2.30035 14.7792 2.47732 14.1154 2.55632C14.7932 2.15039 15.3121 1.50652 15.5581 0.741657C14.9222 1.11758 14.2203 1.39055 13.4724 1.53852C12.8736 0.899644 12.0217 0.501709 11.0769 0.501709C9.26424 0.501709 7.79451 1.97143 7.79451 3.78309C7.79451 4.04004 7.82351 4.29099 7.87951 4.53096C5.15203 4.39397 2.73349 3.08723 1.1148 1.10158C0.831848 1.5855 0.67088 2.14937 0.67088 2.75128C0.67088 3.89008 1.25078 4.89489 2.13062 5.48275C1.59271 5.46477 1.0868 5.31679 0.6439 5.07083V5.11183C0.6439 6.70153 1.77569 8.02827 3.2764 8.33023C3.00144 8.40422 2.71151 8.44521 2.41156 8.44521C2.19961 8.44521 1.99464 8.42422 1.79368 8.38422C2.21159 9.68898 3.42338 10.6378 4.85912 10.6638C3.73632 11.5436 2.32058 12.0665 0.78288 12.0665C0.517939 12.0665 0.256972 12.0505 3.05176e-05 12.0216C1.45276 12.9544 3.17744 13.4983 5.03109 13.4983C11.0689 13.4983 14.3693 8.49721 14.3693 4.16004L14.3583 3.73512C15.0032 3.27517 15.5611 2.69729 16 2.03941Z" fill="white"/>
</svg>
