<svg width="16" height="14" viewBox="0 0 16 14" fill="none" xmlns="http://www.w3.org/2000/svg">
<path d="M15.2682 3.39289C15.0937 2.74621 14.5797 2.23691 13.927 2.06407C12.7439 1.75 7.99999 1.75 7.99999 1.75C7.99999 1.75 3.2561 1.75 2.07302 2.06407C1.42032 2.23694 0.906267 2.74621 0.731795 3.39289C0.414795 4.56504 0.414795 7.01061 0.414795 7.01061C0.414795 7.01061 0.414795 9.45618 0.731795 10.6283C0.906267 11.275 1.42032 11.7631 2.07302 11.9359C3.2561 12.25 7.99999 12.25 7.99999 12.25C7.99999 12.25 12.7439 12.25 13.927 11.9359C14.5797 11.7631 15.0937 11.275 15.2682 10.6283C15.5852 9.45618 15.5852 7.01061 15.5852 7.01061C15.5852 7.01061 15.5852 4.56504 15.2682 3.39289V3.39289ZM6.44846 9.231V4.79021L10.4134 7.01066L6.44846 9.231V9.231Z" fill="white"/>
</svg>
